<svg xmlns="http://www.w3.org/2000/svg" width="73" height="73" viewBox="0 0 73 73"><g id="Group_15338" data-name="Group 15338" transform="translate(0 -2067.199)"><g id="Rectangle_100" data-name="Rectangle 100" transform="translate(0 2067.199)" fill="rgba(255,255,255,0.2)" stroke="#1a58d3" stroke-width="2"><rect width="73" height="73" rx="36.5" stroke="none"></rect><rect x="1" y="1" width="71" height="71" rx="35.5" fill="none"></rect></g><g id="Group_2811" data-name="Group 2811" transform="translate(-1156.056 2024.523)"><path id="Path_12357" data-name="Path 12357" d="M1196.812,116.619a15.946,15.946,0,0,0-4.709-4.061,5.5,5.5,0,0,0-3.291-.806,2.529,2.529,0,0,0-2.105,1.44q-2.679,5.433-5.367,10.861a1.656,1.656,0,0,1-.519.583c-.919.647-1.864,1.259-2.787,1.9a4.345,4.345,0,0,0-1.976,3.616,4.658,4.658,0,0,0,4.79,4.756,4.546,4.546,0,0,0,2.3-.735c.089.125.17.238.248.352q2.369,3.489,4.738,6.978a2.905,2.905,0,0,0,3.367,1.243,2.806,2.806,0,0,0,1.425-4.306c-1.134-1.708-2.3-3.4-3.447-5.094-.321-.474-.641-.948-1-1.476.139-.025.216-.046.295-.052,3.305-.265,6.61-.535,9.917-.788a2.641,2.641,0,0,0,1.747-.8,3.418,3.418,0,0,0,.888-1.764,8.3,8.3,0,0,0-.244-3.859A21.209,21.209,0,0,0,1196.812,116.619Zm-14.407,16.392a3.21,3.21,0,0,1-3.615-5.3c.9-.635,1.813-1.239,2.741-1.87l3.6,5.3c-.092.069-.172.133-.257.19C1184.054,131.895,1183.238,132.466,1182.405,133.011Zm9.33,6.128a1.467,1.467,0,1,1-2.416,1.653q-1.917-2.817-3.828-5.639L1184.3,133.4c.671-.456,1.3-.9,1.951-1.32a.562.562,0,0,1,.829.191Q1189.41,135.707,1191.735,139.139Zm-.6-8.887c-1.413.113-2.828.214-4.24.343a.635.635,0,0,1-.686-.318c-1.163-1.745-2.347-3.476-3.528-5.21a.409.409,0,0,1-.059-.474q1.775-3.588,3.531-7.186c.02-.041.048-.079.08-.131a21.883,21.883,0,0,0,8.611,12.678Zm8.794-2.363a2.263,2.263,0,0,1-.634,1.268,1.639,1.639,0,0,1-1.57.482,7.48,7.48,0,0,1-3.123-1.616,20.174,20.174,0,0,1-6.785-10.267,18.152,18.152,0,0,1-.345-1.9c.039-.46.045-.778.1-1.089a1.775,1.775,0,0,1,2.364-1.57,6.992,6.992,0,0,1,2.713,1.358,20.217,20.217,0,0,1,7.1,10.377A6.252,6.252,0,0,1,1199.927,127.888Z" transform="translate(0 -45.343)" fill="#1a58d3"></path><path id="Path_12358" data-name="Path 12358" d="M1456.587,118.564c.445-.293.562-.706.313-1.066a.726.726,0,0,0-1.083-.109q-1.306.855-2.609,1.714c-.684.449-1.371.894-2.052,1.349a.675.675,0,0,0-.307.819.721.721,0,0,0,.784.463,2.528,2.528,0,0,0,.406-.19Q1454.317,120.06,1456.587,118.564Z" transform="translate(-248.924 -50.307)" fill="#1a58d3"></path><path id="Path_12359" data-name="Path 12359" d="M1469.341,200.6c-.865-.15-1.728-.308-2.592-.463l-2.915-.523a.715.715,0,0,0-.814.584.686.686,0,0,0,.526.763c.157.044.321.067.481.1q2.54.459,5.08.916a.73.73,0,0,0,.916-.595A.718.718,0,0,0,1469.341,200.6Z" transform="translate(-259.983 -124.976)" fill="#1a58d3"></path><path id="Path_12360" data-name="Path 12360" d="M1414.526,68.251a.68.68,0,0,0,.77-.64c.042-.336.073-.674.108-1.011q.215-2.093.43-4.187a.683.683,0,0,0-.608-.732.667.667,0,0,0-.766.6q-.276,2.6-.529,5.2A.664.664,0,0,0,1414.526,68.251Z" transform="translate(-215.511 0)" fill="#1a58d3"></path><path id="Path_12361" data-name="Path 12361" d="M1327.985,183.882a3.757,3.757,0,0,0-2.081.642.7.7,0,0,0-.21.932.689.689,0,0,0,.919.253c.1-.051.2-.122.305-.173a2.293,2.293,0,0,1,2.46.169,2.258,2.258,0,0,1,.982,2.258,2.4,2.4,0,0,1-1.018,1.655.687.687,0,0,0,.6,1.215,1.454,1.454,0,0,0,.418-.25,3.753,3.753,0,0,0-2.374-6.7Z" transform="translate(-135.484 -110.72)" fill="#1a58d3"></path></g></g></svg>