<svg xmlns="http://www.w3.org/2000/svg" width="73" height="73" viewBox="0 0 73 73"><g id="Group_89" data-name="Group 89" transform="translate(0 -2067.199)"><g id="Rectangle_100" data-name="Rectangle 100" transform="translate(0 2067.199)" fill="rgba(255,255,255,0.2)" stroke="#1a58d3" stroke-width="2"><rect width="73" height="73" rx="36.5" stroke="none"></rect><rect x="1" y="1" width="71" height="71" rx="35.5" fill="none"></rect></g><g id="Group_15340" data-name="Group 15340" transform="translate(-1080.544 -1417.996)"><path id="Path_12669" data-name="Path 12669" d="M1117.285,3537.19a15.208,15.208,0,0,1-14.081-9.943c-.383-.983-1.456-.463-2.36-.581-.566,0-1.184-.005-1.751,0-.458,0-.522-.065-.525-.525-.011-1.689,0-3.393,0-5.077.038-4.7-.686-3.281,3.842-3.488a.786.786,0,0,0,.8-.57c4.445-13.108,23.823-13.045,28.2.007a.751.751,0,0,0,.8.562c.985-.01,2.219-.008,3.26,0,.492,0,.572.082.573.573.005,2.546.006,5.158,0,7.985,0,.465-.073.535-.554.536-.99,0-2.2.017-3.139-.009a.926.926,0,0,0-.977.685A15.018,15.018,0,0,1,1117.285,3537.19Zm.061-6.846c-.915.094-3.124-.062-3.818.469-.1,1.345.95,3.3,1.782,4.532,2.732,3.673,5.256-1.627,5.768-4a.571.571,0,0,0-.519-.775A30.333,30.333,0,0,0,1117.345,3530.344Zm-4.993.523c-.987.188-4.159,1.044-4.558,1.895,1.126,1.8,4.748,3.159,6.923,3.587.69-.008.185-.711-.039-.979a14.129,14.129,0,0,1-1.722-3.939A.642.642,0,0,0,1112.352,3530.866Zm9.9.009a.672.672,0,0,0-.643.58,13.389,13.389,0,0,1-1.392,3.424c-.337.54-1.221,1.573.112,1.37,2.01-.5,5.356-1.736,6.434-3.489C1126.349,3531.911,1123.322,3531.08,1122.256,3530.875Zm-17.866-4.229c-1.948-.033,1.782,4.774,2.317,5.287a.648.648,0,0,0,.841.146,16.168,16.168,0,0,1,4.526-1.711c1.041-.126.009-2.319.083-3.062a.668.668,0,0,0-.752-.661C1109.138,3526.657,1106.608,3526.652,1104.391,3526.647Zm18.825,0a.649.649,0,0,0-.737.632c.011,1.006-.544,2.008-.321,2.829a.71.71,0,0,0,.479.278,14.621,14.621,0,0,1,4.3,1.63.776.776,0,0,0,1.032-.155c.828-.956,3.005-3.755,2.81-5-.442-.438-1.411-.115-2.162-.206C1126.731,3526.648,1125.005,3526.657,1123.216,3526.647Zm-9.847,0c-1.327-.071-.267,2.072-.323,2.832a.625.625,0,0,0,.791.584,24.245,24.245,0,0,1,3.484-.255,26.878,26.878,0,0,1,3.611.266c.632.1.679-1,.767-1.49.031-.541.384-1.27.106-1.76-.263-.372-4.017-.087-4.463-.172C1116.088,3526.65,1114.534,3526.656,1113.369,3526.645Zm13.738-8.518a.678.678,0,0,0-.731.745c.013,2.133.013,4.3,0,6.447a.694.694,0,0,0,.753.773c1.229-.006,2.5-.01,3.787-.01,1.227,0,2.513,0,3.822.009a.765.765,0,0,0,.568-.183.757.757,0,0,0,.181-.562c-.013-2.147-.013-4.316,0-6.447a.8.8,0,0,0-.185-.588.77.77,0,0,0-.58-.185C1132.333,3518.144,1129.495,3518.139,1127.107,3518.126Zm-9.376,7.957c10-.488,7.83,2.58,8.08-7.178a.691.691,0,0,0-.75-.78c-4.174,0-8.431.007-12.654.007-4.27.176-8.819-.349-13.045.187a.82.82,0,0,0-.19.6c.014,2.1.006,4.174.007,6.255,0,.762.141.906.89.906Zm9.657-14.052a22.012,22.012,0,0,1-4.8,1.8.61.61,0,0,0-.511.816c.71,2.577-.486,3.079,2.715,2.912,1.094.005,2.738,0,3.848,0,.664-.1,1.6.225,2.133-.2C1131.052,3516.445,1128.418,3512.276,1127.388,3512.032Zm-13.711,2.114c-.925-.032-.678,1.946-.964,2.618a.616.616,0,0,0,.688.809c2.442-.012,5.371-.011,7.809,0a.719.719,0,0,0,.591-.2c.3-.7-.17-1.477-.176-2.207-.022-.623-.3-1.148-.856-1.01A24.671,24.671,0,0,1,1113.677,3514.145Zm-6.472-2.092c-.923.071-3.7,4.432-3.341,5.3a.637.637,0,0,0,.569.219c1.58-.015,3.652,0,5.286-.006.7-.1,2.345.368,2.407-.612a20.307,20.307,0,0,1,.387-2.343.655.655,0,0,0-.063-.506.7.7,0,0,0-.462-.27A22.148,22.148,0,0,1,1107.2,3512.054Zm10.1-4.386c-2.377.354-3.068,3.107-3.815,5.25a.578.578,0,0,0,.04.483c.686.535,2.808.37,3.813.476,1.115-.031,2.2-.1,3.232-.212a.568.568,0,0,0,.524-.812C1120.508,3511.092,1119.556,3507.835,1117.3,3507.667Zm2.528.2a.31.31,0,0,0-.246.493,13.555,13.555,0,0,1,2.053,4.4.693.693,0,0,0,.652.583c1-.2,4.143-1.059,4.5-1.881a.6.6,0,0,0-.269-.5A14.275,14.275,0,0,0,1119.831,3507.87Zm-5.289.05c-1.786.313-5.888,1.9-6.679,3.535.3.822,3.547,1.717,4.479,1.881a.7.7,0,0,0,.664-.608,12.245,12.245,0,0,1,1.849-4.11A.411.411,0,0,0,1114.542,3507.92Z" fill="#1a58d3" stroke="#1a58d3" stroke-width="0.5"></path><path id="Path_12670" data-name="Path 12670" d="M1212.49,3636.13c-.623-.051-.88-3.379-1.772-2.371-.244.626-.51,1.293-.751,1.914-.232.756-.692.5-.78-.163q-.3-1.066-.586-2.135c-.012-.3-.619-1.423-.038-1.437.6.094.475,3.089,1.4,2.111.159-.227.683-2.191,1.006-2.121.666,0,.706,2.462,1.445,2.24.573-.345.5-1.4.782-1.995.114-.288.188-.24.326-.224.56.19-.2,1.565-.227,2.02C1213.087,3634.4,1212.939,3636.122,1212.49,3636.13Z" transform="translate(-98.506 -111.933)" fill="#1a58d3" stroke="#1a58d3" stroke-width="0.5"></path><path id="Path_12671" data-name="Path 12671" d="M1141.744,3636.014c-.457.069-.943-2.789-1.437-2.677a.317.317,0,0,0-.287.2l-.719,1.829c-.072.214-.265.729-.469.642-.386.024-.468-1.148-.614-1.442-.219-.8-.428-1.546-.639-2.35-.069-.252.056-.4.259-.392.473.357.417,1.265.666,1.8.011.033.1.356.107.376a.311.311,0,0,0,.578.014c.257-.651.51-1.292.755-1.918.172-.425.48-.382.639.022.457,1.047,1.01,3.4,1.507,1.23.172-.391.236-1.441.6-1.53.718.164-.066,1.341-.082,1.829C1142.391,3634.1,1142.2,3636.007,1141.744,3636.014Z" transform="translate(-35.014 -111.816)" fill="#1a58d3" stroke="#1a58d3" stroke-width="0.5"></path><path id="Path_12672" data-name="Path 12672" d="M1282.68,3636.143c-.377.025-.9-2.012-1.143-2.427-.921-1.194-1.233,3.463-2.016,2.2-.334-1.2-.678-2.434-1-3.656a.252.252,0,1,1,.492-.1c.221.368.472,2.922,1.14,1.974.235-.4.683-2.224,1.041-2.2.909.162,1.039,5.088,2.25.179.1-.319.571-.146.506.148-.3,1.112-.62,2.285-1.019,3.69A.226.226,0,0,1,1282.68,3636.143Z" transform="translate(-161.501 -111.944)" fill="#1a58d3" stroke="#1a58d3" stroke-width="0.5"></path><path id="Path_12673" data-name="Path 12673" d="M1394.464,3633.354c-.685-.206-1.054-1.325-1.81-1.368-.349.016-.739.255-1.108.221a1.979,1.979,0,0,1-.984-3.657,2.044,2.044,0,0,1,2.692.589c.844,1.052-.386,2.025.356,2.726C1393.832,3632.171,1395.264,3633.134,1394.464,3633.354Zm-2.944-4.552a1.432,1.432,0,0,0,.024,2.861A1.432,1.432,0,0,0,1391.519,3628.8Z" transform="translate(-261.214 -108.654)" fill="#1a58d3" stroke="#1a58d3" stroke-width="0.5"></path></g></g></svg>