<svg xmlns="http://www.w3.org/2000/svg" width="188" height="56" viewBox="0 0 188 56" fill="none"><path d="M180.401 55.4074H7.25271C3.37419 55.4074 0.326782 52.36 0.326782 48.4815V6.92593C0.326782 3.04741 3.37419 0 7.25271 0H180.401C184.279 0 187.327 3.04741 187.327 6.92593V48.4815C187.327 52.36 184.279 55.4074 180.401 55.4074Z" fill="black"></path><path d="M180.401 1.10815C183.587 1.10815 186.219 3.74 186.219 6.92593V48.4815C186.219 51.6674 183.587 54.2993 180.401 54.2993H7.25271C4.06678 54.2993 1.43493 51.6674 1.43493 48.4815V6.92593C1.43493 3.74 4.06678 1.10815 7.25271 1.10815H180.401ZM180.401 0H7.25271C3.37419 0 0.326782 3.18593 0.326782 6.92593V48.4815C0.326782 52.36 3.37419 55.4074 7.25271 55.4074H180.401C184.279 55.4074 187.327 52.36 187.327 48.4815V6.92593C187.327 3.18593 184.279 0 180.401 0Z" fill="#A6A6A6"></path><path d="M65.9842 14.1292C65.9842 15.2373 65.7072 16.2069 65.0146 16.8995C64.1835 17.7306 63.2138 18.1462 61.9672 18.1462C60.7205 18.1462 59.7509 17.7306 58.9198 16.8995C58.0886 16.0684 57.6731 15.0988 57.6731 13.8521C57.6731 12.6055 58.0886 11.6358 58.9198 10.8047C59.7509 9.9736 60.7205 9.55804 61.9672 9.55804C62.5212 9.55804 63.0753 9.69656 63.6294 9.9736C64.1835 10.2506 64.599 10.5277 64.8761 10.9432L64.1835 11.6358C63.6294 10.9432 62.9368 10.6662 61.9672 10.6662C61.1361 10.6662 60.3049 10.9432 59.7509 11.6358C59.0583 12.1899 58.7812 13.021 58.7812 13.9906C58.7812 14.9603 59.0583 15.7914 59.7509 16.3455C60.4435 16.8995 61.1361 17.3151 61.9672 17.3151C62.9368 17.3151 63.6294 17.038 64.322 16.3455C64.7375 15.9299 65.0146 15.3758 65.0146 14.6832H61.9672V13.5751H65.9842V14.1292ZM72.3561 10.6662H68.6161V13.298H72.079V14.2677H68.6161V16.8995H72.3561V18.0077H67.5079V9.69656H72.3561V10.6662ZM76.9272 18.0077H75.819V10.6662H73.4642V9.69656H79.282V10.6662H76.9272V18.0077ZM83.299 18.0077V9.69656H84.4072V18.0077H83.299ZM89.1168 18.0077H88.0086V10.6662H85.6538V9.69656H91.3331V10.6662H88.9783V18.0077H89.1168ZM102.276 16.8995C101.445 17.7306 100.475 18.1462 99.2286 18.1462C97.982 18.1462 97.0123 17.7306 96.1812 16.8995C95.3501 16.0684 94.9346 15.0988 94.9346 13.8521C94.9346 12.6055 95.3501 11.6358 96.1812 10.8047C97.0123 9.9736 97.982 9.55804 99.2286 9.55804C100.475 9.55804 101.445 9.9736 102.276 10.8047C103.107 11.6358 103.523 12.6055 103.523 13.8521C103.523 15.0988 103.107 16.0684 102.276 16.8995ZM97.0124 16.2069C97.5664 16.761 98.3975 17.1766 99.2286 17.1766C100.06 17.1766 100.891 16.8995 101.445 16.2069C101.999 15.6529 102.415 14.8217 102.415 13.8521C102.415 12.8825 102.138 12.0514 101.445 11.4973C100.891 10.9432 100.06 10.5277 99.2286 10.5277C98.3975 10.5277 97.5664 10.8047 97.0124 11.4973C96.4583 12.0514 96.0427 12.8825 96.0427 13.8521C96.0427 14.8217 96.3198 15.6529 97.0124 16.2069ZM105.046 18.0077V9.69656H106.293L110.31 16.2069V9.69656H111.418V18.0077H110.31L106.016 11.2203V18.0077H105.046Z" fill="white"></path><path d="M94.6574 30.1968C91.3329 30.1968 88.7011 32.6901 88.7011 36.1531C88.7011 39.4775 91.3329 42.1094 94.6574 42.1094C97.9818 42.1094 100.614 39.616 100.614 36.1531C100.614 32.5516 97.9818 30.1968 94.6574 30.1968ZM94.6574 39.616C92.8566 39.616 91.3329 38.0923 91.3329 36.0145C91.3329 33.9368 92.8566 32.4131 94.6574 32.4131C96.4581 32.4131 97.9818 33.7983 97.9818 36.0145C97.9818 38.0923 96.4581 39.616 94.6574 39.616ZM81.7752 30.1968C78.4507 30.1968 75.8189 32.6901 75.8189 36.1531C75.8189 39.4775 78.4507 42.1094 81.7752 42.1094C85.0996 42.1094 87.7315 39.616 87.7315 36.1531C87.7315 32.5516 85.0996 30.1968 81.7752 30.1968ZM81.7752 39.616C79.9744 39.616 78.4507 38.0923 78.4507 36.0145C78.4507 33.9368 79.9744 32.4131 81.7752 32.4131C83.5759 32.4131 85.0996 33.7983 85.0996 36.0145C85.0996 38.0923 83.5759 39.616 81.7752 39.616ZM66.3996 31.9975V34.4908H72.3559C72.2174 35.876 71.6633 36.9842 70.9707 37.6768C70.1396 38.5079 68.7544 39.4775 66.3996 39.4775C62.6596 39.4775 59.8892 36.5686 59.8892 32.8286C59.8892 29.0886 62.7981 26.1797 66.3996 26.1797C68.3389 26.1797 69.8626 27.0108 70.9707 27.9805L72.7715 26.1797C71.2478 24.7945 69.3085 23.6864 66.5381 23.6864C61.5515 23.6864 57.2574 27.842 57.2574 32.8286C57.2574 37.8153 61.5515 41.9708 66.5381 41.9708C69.3085 41.9708 71.2478 41.1397 72.91 39.339C74.5722 37.6768 75.1263 35.322 75.1263 33.5212C75.1263 32.9671 75.1263 32.4131 74.9878 31.9975H66.3996ZM129.287 33.9368C128.733 32.5516 127.348 30.1968 124.3 30.1968C121.253 30.1968 118.76 32.5516 118.76 36.1531C118.76 39.4775 121.253 42.1094 124.577 42.1094C127.209 42.1094 128.871 40.4471 129.426 39.4775L127.486 38.0923C126.794 39.062 125.963 39.7546 124.577 39.7546C123.192 39.7546 122.361 39.2005 121.669 37.9538L129.564 34.6294L129.287 33.9368ZM121.253 35.876C121.253 33.6597 123.054 32.4131 124.3 32.4131C125.27 32.4131 126.24 32.9671 126.517 33.6597L121.253 35.876ZM114.743 41.5553H117.374V24.2405H114.743V41.5553ZM110.587 31.4434C109.894 30.7508 108.786 30.0583 107.401 30.0583C104.492 30.0583 101.722 32.6901 101.722 36.0145C101.722 39.339 104.354 41.8323 107.401 41.8323C108.786 41.8323 109.894 41.1397 110.449 40.4471H110.587V41.2783C110.587 43.4945 109.34 44.7412 107.401 44.7412C105.877 44.7412 104.769 43.6331 104.492 42.6634L102.276 43.6331C102.968 45.1568 104.631 47.096 107.54 47.096C110.587 47.096 113.08 45.2953 113.08 41.0012V30.4738H110.587V31.4434ZM107.54 39.616C105.739 39.616 104.215 38.0923 104.215 36.0145C104.215 33.9368 105.739 32.4131 107.54 32.4131C109.34 32.4131 110.726 33.9368 110.726 36.0145C110.726 38.0923 109.34 39.616 107.54 39.616ZM141.338 24.2405H135.105V41.5553H137.737V35.0449H141.338C144.247 35.0449 147.017 32.9671 147.017 29.6427C147.017 26.3183 144.247 24.2405 141.338 24.2405ZM141.477 32.5516H137.737V26.5953H141.477C143.416 26.5953 144.524 28.2575 144.524 29.5042C144.386 31.0279 143.277 32.5516 141.477 32.5516ZM157.406 30.0583C155.467 30.0583 153.528 30.8894 152.835 32.6901L155.19 33.6597C155.744 32.6901 156.575 32.4131 157.545 32.4131C158.93 32.4131 160.177 33.2442 160.315 34.6294V34.7679C159.9 34.4908 158.791 34.0753 157.683 34.0753C155.19 34.0753 152.697 35.4605 152.697 37.9538C152.697 40.3086 154.774 41.8323 156.991 41.8323C158.791 41.8323 159.623 41.0012 160.315 40.1701H160.454V41.5553H162.947V34.9064C162.67 31.859 160.315 30.0583 157.406 30.0583ZM157.129 39.616C156.298 39.616 155.051 39.2005 155.051 38.0923C155.051 36.7071 156.575 36.2916 157.822 36.2916C158.93 36.2916 159.484 36.5686 160.177 36.8457C159.9 38.5079 158.514 39.616 157.129 39.616ZM171.674 30.4738L168.765 37.9538H168.626L165.579 30.4738H162.809L167.38 41.0012L164.748 46.819H167.38L174.444 30.4738H171.674ZM148.403 41.5553H151.034V24.2405H148.403V41.5553Z" fill="white"></path><path d="M14.7326 10.388C14.317 10.8036 14.1785 11.4961 14.1785 12.3273V42.9399C14.1785 43.771 14.4556 44.4636 14.8711 44.8791L15.0096 45.0176L32.1859 27.8413V27.5643L14.7326 10.388Z" fill="url(#paint0_linear_86_371)"></path><path d="M37.7264 33.6588L32.0472 27.9795V27.564L37.7264 21.8847L37.865 22.0232L44.6524 25.9017C46.5916 27.0099 46.5916 28.8106 44.6524 29.9188L37.7264 33.6588Z" fill="url(#paint1_linear_86_371)"></path><path d="M37.8653 33.5211L32.0475 27.7034L14.7327 45.0182C15.4253 45.7108 16.395 45.7108 17.6416 45.1567L37.8653 33.5211Z" fill="url(#paint2_linear_86_371)"></path><path d="M37.8653 21.8848L17.6416 10.3877C16.395 9.69513 15.4253 9.83364 14.7327 10.5262L32.0475 27.7025L37.8653 21.8848Z" fill="url(#paint3_linear_86_371)"></path><path opacity="0.2" d="M37.7268 33.3826L17.6416 44.7411C16.5335 45.4337 15.5638 45.2952 14.8712 44.7411L14.7327 44.8797L14.8712 45.0182C15.5638 45.5723 16.5335 45.7108 17.6416 45.0182L37.7268 33.3826Z" fill="black"></path><path opacity="0.12" d="M14.7326 44.7411C14.317 44.3256 14.1785 43.633 14.1785 42.8019V42.9404C14.1785 43.7715 14.4556 44.4641 14.8711 44.8797V44.7411H14.7326ZM44.6526 29.5041L37.7267 33.3826L37.8652 33.5211L44.6526 29.6426C45.6222 29.0886 46.0378 28.396 46.0378 27.7034C46.0378 28.396 45.4837 28.95 44.6526 29.5041Z" fill="black"></path><path opacity="0.25" d="M17.6411 10.5269L44.6522 25.9025C45.4834 26.4566 46.0374 27.0107 46.0374 27.7032C46.0374 27.0107 45.6219 26.3181 44.6522 25.764L17.6411 10.3884C15.7019 9.28028 14.1782 10.1114 14.1782 12.3277V12.4662C14.1782 10.3884 15.7019 9.4188 17.6411 10.5269Z" fill="white"></path><defs><linearGradient id="paint0_linear_86_371" x1="30.5237" y1="12.0641" x2="7.27615" y2="35.3103" gradientUnits="userSpaceOnUse"><stop stop-color="#00A0FF"></stop><stop offset="0.007" stop-color="#00A1FF"></stop><stop offset="0.26" stop-color="#00BEFF"></stop><stop offset="0.512" stop-color="#00D2FF"></stop><stop offset="0.76" stop-color="#00DFFF"></stop><stop offset="1" stop-color="#00E3FF"></stop></linearGradient><linearGradient id="paint1_linear_86_371" x1="47.1928" y1="27.7039" x2="13.6755" y2="27.7039" gradientUnits="userSpaceOnUse"><stop stop-color="#FFE000"></stop><stop offset="0.409" stop-color="#FFBD00"></stop><stop offset="0.775" stop-color="#FFA500"></stop><stop offset="1" stop-color="#FF9C00"></stop></linearGradient><linearGradient id="paint2_linear_86_371" x1="34.7168" y1="30.8838" x2="3.19275" y2="62.4078" gradientUnits="userSpaceOnUse"><stop stop-color="#FF3A44"></stop><stop offset="1" stop-color="#C31162"></stop></linearGradient><linearGradient id="paint3_linear_86_371" x1="10.4345" y1="0.242623" x2="24.5121" y2="14.3203" gradientUnits="userSpaceOnUse"><stop stop-color="#32A071"></stop><stop offset="0.069" stop-color="#2DA771"></stop><stop offset="0.476" stop-color="#15CF74"></stop><stop offset="0.801" stop-color="#06E775"></stop><stop offset="1" stop-color="#00F076"></stop></linearGradient></defs></svg>