<svg xmlns="http://www.w3.org/2000/svg" width="95.574" height="95.574" viewBox="0 0 95.574 95.574"><g id="Group_2602" data-name="Group 2602" transform="translate(-870.5 -1476.12)"><g id="Group_2578" data-name="Group 2578" transform="translate(-8.5 365)"><g id="Union_21" data-name="Union 21" transform="translate(879 1111.12)" fill="none"><path d="M47.788,0A47.787,47.787,0,1,1,0,47.787,47.787,47.787,0,0,1,47.788,0Z" stroke="none"></path><path d="M 47.78778076171875 0.9999923706054688 C 41.47111892700195 0.9999923706054688 35.34391784667969 2.236892700195312 29.57640838623047 4.676353454589844 C 24.00514221191406 7.032791137695312 19.00143432617188 10.40647125244141 14.70425415039062 14.70364379882812 C 10.40708160400391 19.00081634521484 7.033416748046875 24.00453186035156 4.676971435546875 29.57579040527344 C 2.237518310546875 35.34330368041992 1.000617980957031 41.47049331665039 1.000617980957031 47.78715515136719 C 1.000617980957031 54.10381698608398 2.237518310546875 60.23100662231445 4.676971435546875 65.99851989746094 C 7.033416748046875 71.56977844238281 10.40708160400391 76.57349395751953 14.70425415039062 80.87066650390625 C 19.00143432617188 85.1678466796875 24.00514221191406 88.54150390625 29.57640838623047 90.89795684814453 C 35.34391784667969 93.33740234375 41.47111892700195 94.57430267333984 47.78778076171875 94.57430267333984 C 54.10444259643555 94.57430267333984 60.23163223266602 93.33740234375 65.9991455078125 90.89795684814453 C 71.57040405273438 88.54150390625 76.57411956787109 85.1678466796875 80.87129211425781 80.87066650390625 C 85.16847229003906 76.57349395751953 88.54212951660156 71.56977844238281 90.89858245849609 65.99851989746094 C 93.33802795410156 60.23100662231445 94.57492828369141 54.10381698608398 94.57492828369141 47.78715515136719 C 94.57492828369141 41.47049331665039 93.33802795410156 35.34330368041992 90.89858245849609 29.57579040527344 C 88.54212951660156 24.00453186035156 85.16847229003906 19.00081634521484 80.87129211425781 14.70364379882812 C 76.57411956787109 10.40647125244141 71.57040405273438 7.032791137695312 65.9991455078125 4.676353454589844 C 60.23163223266602 2.236892700195312 54.10444259643555 0.9999923706054688 47.78778076171875 0.9999923706054688 M 47.78778076171875 -7.62939453125e-06 C 74.17989349365234 -7.62939453125e-06 95.57492828369141 21.39504241943359 95.57492828369141 47.78715515136719 C 95.57492828369141 74.17926788330078 74.17989349365234 95.57430267333984 47.78778076171875 95.57430267333984 C 21.39565277099609 95.57430267333984 0.00061798095703125 74.17926788330078 0.00061798095703125 47.78715515136719 C 0.00061798095703125 21.39504241943359 21.39565277099609 -7.62939453125e-06 47.78778076171875 -7.62939453125e-06 Z" stroke="none" fill="#1a58d3"></path></g><g id="Group_2573" data-name="Group 2573" transform="translate(-1034.451 -4.199)"><path id="Path_12279" data-name="Path 12279" d="M2009,1162.5c-.172,0-.319,0-.444,0a3.371,3.371,0,0,1-.446-.016,2.887,2.887,0,0,1,0-.348c0-.133.005-.295,0-.49-.005-.346,0-.7,0-1.041,0-.47.007-.956-.01-1.436a1.189,1.189,0,0,1,.4-.965c2.614-2.614,5.263-5.28,7.825-7.858l1.965-1.977.08-.08a3.716,3.716,0,0,0,.306-.328,1.139,1.139,0,0,0-.025-1.529,1.1,1.1,0,0,0-.8-.35,1.16,1.16,0,0,0-.738.269c-.447.363-.891.741-1.321,1.107-.394.335-.8.682-1.207,1.014-.45.368-.893.756-1.322,1.131a23.321,23.321,0,0,1-2.993,2.345,13.193,13.193,0,0,1-15.768-1.24q-2.384-2.027-4.771-4.052l-.037-.031a4.263,4.263,0,0,0-.449-.348,1.19,1.19,0,0,0-.645-.191,1.128,1.128,0,0,0-.84.37,1.078,1.078,0,0,0-.044,1.434,2.992,2.992,0,0,0,.309.343l2,2.012c2.576,2.593,5.239,5.274,7.869,7.9a1.344,1.344,0,0,1,.455,1.089c-.032.923-.021,1.86-.01,2.766l0,.3c0,.151-.024.182-.025.182a.259.259,0,0,1-.137.021h-.015c-.15,0-.282,0-.4,0h-.119a3.109,3.109,0,0,1-.412-.016,2.871,2.871,0,0,1,0-.329c0-.138.006-.31,0-.521-.011-.566-.024-1.207.005-1.824a1.5,1.5,0,0,0-.49-1.217c-2.2-2.187-4.423-4.419-6.575-6.578l-3.027-3.033a2.378,2.378,0,0,1-.8-1.7,2.167,2.167,0,0,1,1.269-2.116,2.146,2.146,0,0,1,2.488.317c.655.539,1.312,1.1,1.948,1.642.477.407.97.828,1.46,1.238.269.225.539.459.8.685a16.807,16.807,0,0,0,3.3,2.412l.106.057a1.658,1.658,0,0,0,.708.24l.47.042-.217-.419a5.334,5.334,0,0,1-.432-4.228,5.037,5.037,0,0,1,1.782-2.526,5.21,5.21,0,0,1,6.1-.205,5.082,5.082,0,0,1,2.186,3.149,5.407,5.407,0,0,1-.557,3.832l-.268.52.565-.151a4.757,4.757,0,0,0,1.287-.593l.071-.043a20.477,20.477,0,0,0,2.887-2.224c.368-.32.748-.651,1.13-.963.674-.551,1.344-1.126,1.992-1.683q.393-.337.787-.674a2.6,2.6,0,0,1,1.682-.668,2.2,2.2,0,0,1,1.623.733,2.328,2.328,0,0,1-.159,3.264c-3.564,3.586-6.715,6.742-9.632,9.648a1.57,1.57,0,0,0-.516,1.254c.018.455.014.921.011,1.372,0,.358-.005.729,0,1.095,0,.153-.026.185-.026.185s-.03.027-.166.027Zm-5.76-17.841a4.079,4.079,0,0,0-4.11,4.061,4.014,4.014,0,0,0,1.122,2.89,4.114,4.114,0,0,0,2.93,1.222h.065a4.007,4.007,0,0,0,4.054-3.989,4.058,4.058,0,0,0-4.04-4.183h-.021Z" transform="translate(-41.971)" fill="#1a58d3" stroke="rgba(0,0,0,0)" stroke-width="1"></path><path id="Path_12280" data-name="Path 12280" d="M2060.067,1318.906a19.7,19.7,0,0,1-5.933-.77,6.355,6.355,0,0,1-1.6-.743.772.772,0,0,1-.395-.747c.019-.481,0-.967-.01-1.437a11.012,11.012,0,0,1,.1-2.439,5.032,5.032,0,0,1,3.889-4.131c.25-.069.467-.129.536-.343s-.069-.4-.214-.585a5.222,5.222,0,0,1,3.3-8.494,4.837,4.837,0,0,1,.771-.062,5.227,5.227,0,0,1,4.167,8.313c-.28.376-.421.564-.343.8s.311.3.774.442a5.191,5.191,0,0,1,3.677,4.9c0,.383,0,.767,0,1.15,0,.609-.006,1.238.011,1.859a.869.869,0,0,1-.489.841,9.509,9.509,0,0,1-3.478,1.149c-.411.072-.837.124-1.248.173l-.13.016a19.77,19.77,0,0,1-2.339.112l-.574,0Zm.43-9.324c-.984,0-1.992.007-3,.02a4.076,4.076,0,0,0-4.195,3.686,10.308,10.308,0,0,0-.059,1.626c.006.333.012.677,0,1.01a.824.824,0,0,0,.569.876,10.77,10.77,0,0,0,2.147.615,24.63,24.63,0,0,0,4.417.376c.8,0,1.646-.033,2.513-.1a14.312,14.312,0,0,0,4.054-.816.973.973,0,0,0,.751-1.122,3.55,3.55,0,0,1-.012-.585c0-.1.006-.2.006-.3s0-.213,0-.319c0-.23,0-.468,0-.7a4.127,4.127,0,0,0-4.254-4.242C2062.468,1309.589,2061.48,1309.582,2060.5,1309.582Zm-.088-9.271a4.06,4.06,0,0,0-4.047,4.024v.02a4.07,4.07,0,0,0,4.059,4.112h.077a4.107,4.107,0,0,0,2.96-6.9,4.148,4.148,0,0,0-2.946-1.258Z" transform="translate(-99.218 -135.458)" fill="#1a58d3" stroke="rgba(0,0,0,0)" stroke-width="1"></path><path id="Path_12281" data-name="Path 12281" d="M2181.386,1300.973a30.831,30.831,0,0,1-4.359-.316c-.17-.024-.2-.062-.2-.062s-.023-.039.012-.2c.039-.183.069-.337.094-.467a3.374,3.374,0,0,1,.1-.423h0a2.478,2.478,0,0,1,.3.039c.147.023.329.052.563.078a34,34,0,0,0,3.7.218,21.162,21.162,0,0,0,5.45-.659c1.462-.385,1.548-.5,1.539-1.991,0-.157,0-.315,0-.472a8.4,8.4,0,0,0-.054-1.354,4.129,4.129,0,0,0-4.218-3.717c-.34-.006-.706-.009-1.152-.009l-.957,0-1.143,0h-.013c-.145.007-.308.011-.5.011-.214,0-.438,0-.668-.009-.248,0-.5-.01-.762-.01a11.659,11.659,0,0,0-1.344.066,3.9,3.9,0,0,0-2.628,1.412c-.091.109-.159.164-.2.164a.432.432,0,0,1-.21-.1l-.041-.027a2.808,2.808,0,0,1-.661-.513,3.148,3.148,0,0,1,.589-.649,4.938,4.938,0,0,1,2.4-1.318c.2-.044.453-.1.531-.324a.635.635,0,0,0-.21-.582,5.2,5.2,0,0,1,1.82-8.072,5.051,5.051,0,0,1,2.181-.5,5.225,5.225,0,0,1,5.236,5.15,5.107,5.107,0,0,1-1.229,3.446c-.114.136-.27.322-.2.539s.281.275.477.326a5.158,5.158,0,0,1,4.057,5.222c0,.292,0,.584,0,.876,0,.6-.01,1.23.013,1.847a.925.925,0,0,1-.522.917,9.043,9.043,0,0,1-3.434,1.122A29.068,29.068,0,0,1,2181.386,1300.973Zm-.059-18.637a4.17,4.17,0,0,0-4.062,4.142,4.179,4.179,0,0,0,4.1,4.052h.028a4.143,4.143,0,0,0,4.085-4.087,4.053,4.053,0,0,0-1.215-2.879,4.1,4.1,0,0,0-2.908-1.228Z" transform="translate(-205.354 -119.83)" fill="#1a58d3" stroke="rgba(0,0,0,0)" stroke-width="1"></path><path id="Path_12282" data-name="Path 12282" d="M1946.26,1300.979a23.356,23.356,0,0,1-5.436-.6,7.423,7.423,0,0,1-2.21-.89.855.855,0,0,1-.466-.848c.022-.485.007-.976-.007-1.451a10.662,10.662,0,0,1,.1-2.379,5.029,5.029,0,0,1,3.9-4.126c.214-.058.456-.124.528-.344s-.089-.425-.219-.588a5.223,5.223,0,0,1,3.319-8.49,4.9,4.9,0,0,1,.761-.06,5.225,5.225,0,0,1,4.157,8.324l-.064.088a1.525,1.525,0,0,1-.15.189c-.085.085-.285.284-.216.522s.351.3.486.331a5.182,5.182,0,0,1,2.963,1.854c.1.124.108.17.108.174h0a.447.447,0,0,1-.151.13l-.046.03a1.984,1.984,0,0,1-.66.358c-.116,0-.321-.189-.63-.476a4.141,4.141,0,0,0-2.88-1.08c-.338-.005-.7-.008-1.153-.008l-.91,0-1.085,0c-.135.005-.262.008-.394.008-.229,0-.468-.006-.721-.013-.27-.007-.549-.014-.835-.014a10.111,10.111,0,0,0-1.347.077,4.1,4.1,0,0,0-3.741,4.242c0,.247,0,.5,0,.74,0,.391.01.8-.013,1.187a.948.948,0,0,0,.713,1.035,13.536,13.536,0,0,0,3.367.758,30.513,30.513,0,0,0,3.183.171,26.459,26.459,0,0,0,4.187-.328.527.527,0,0,1,.08-.007.131.131,0,0,1,.046.005.262.262,0,0,1,.024.084.538.538,0,0,0,.023.089l0,.014c.031.188.062.353.088.492a3.68,3.68,0,0,1,.071.457,3.239,3.239,0,0,1-.38.046c-.141.012-.312.027-.515.052A32.369,32.369,0,0,1,1946.26,1300.979Zm.158-18.644a4.134,4.134,0,0,0-2.879,1.276,4.083,4.083,0,0,0-1.166,2.882,4.083,4.083,0,0,0,7.018,2.79,4,4,0,0,0,1.191-2.859,4.18,4.18,0,0,0-4.1-4.09Z" transform="translate(0 -119.829)" fill="#1a58d3" stroke="rgba(0,0,0,0)" stroke-width="1"></path></g></g><g id="Group_2596" data-name="Group 2596" transform="translate(935.628 1546.247)"><circle id="Ellipse_45" data-name="Ellipse 45" cx="12.723" cy="12.723" r="12.723" fill="#1a58d3"></circle><path id="Path_12257" data-name="Path 12257" d="M8360.22,10002.886a.842.842,0,0,1-.718-.422c-.835-1.131-1.664-2.262-2.516-3.381-.313-.414-.684-.789-1.025-1.184a.549.549,0,0,1,0-.855,3.655,3.655,0,0,1,.635-.57,1.067,1.067,0,0,1,1.392.225c.586.609,1.148,1.24,1.677,1.9.447.557.434.588.915.051a24.27,24.27,0,0,1,3.263-3.111,10.682,10.682,0,0,1,4.624-2.23,2.146,2.146,0,0,1,.591-.033.335.335,0,0,1,.228.2.325.325,0,0,1-.141.262c-.321.213-.666.389-.987.6a16.2,16.2,0,0,0-3.229,2.92c-.986,1.133-1.916,2.316-2.852,3.492-.347.438-.63.926-.962,1.375a4.927,4.927,0,0,1-.6.646A.765.765,0,0,1,8360.22,10002.886Z" transform="translate(-8349.133 -9984.098)" fill="#fafafa"></path></g></g></svg>