<svg xmlns="http://www.w3.org/2000/svg" width="95.574" height="95.694" viewBox="0 0 95.574 95.694"><g id="Group_2599" data-name="Group 2599" transform="translate(-321 -1476)"><g id="Group_2575" data-name="Group 2575" transform="translate(0 365)"><g id="Union_18" data-name="Union 18" transform="translate(321 1111)" fill="none"><path d="M47.788,0A47.787,47.787,0,1,1,0,47.787,47.787,47.787,0,0,1,47.788,0Z" stroke="none"></path><path d="M 47.78778076171875 0.9999923706054688 C 41.47111892700195 0.9999923706054688 35.34391784667969 2.236892700195312 29.57640838623047 4.676353454589844 C 24.00514221191406 7.032791137695312 19.00143432617188 10.40647125244141 14.70425415039062 14.70364379882812 C 10.40708160400391 19.00081634521484 7.033416748046875 24.00453186035156 4.676971435546875 29.57579040527344 C 2.237518310546875 35.34330368041992 1.000617980957031 41.47049331665039 1.000617980957031 47.78715515136719 C 1.000617980957031 54.10381698608398 2.237518310546875 60.23100662231445 4.676971435546875 65.99851989746094 C 7.033416748046875 71.56977844238281 10.40708160400391 76.57349395751953 14.70425415039062 80.87066650390625 C 19.00143432617188 85.1678466796875 24.00514221191406 88.54150390625 29.57640838623047 90.89795684814453 C 35.34391784667969 93.33740234375 41.47111892700195 94.57430267333984 47.78778076171875 94.57430267333984 C 54.10444259643555 94.57430267333984 60.23163223266602 93.33740234375 65.9991455078125 90.89795684814453 C 71.57040405273438 88.54150390625 76.57411956787109 85.1678466796875 80.87129211425781 80.87066650390625 C 85.16847229003906 76.57349395751953 88.54212951660156 71.56977844238281 90.89858245849609 65.99851989746094 C 93.33802795410156 60.23100662231445 94.57492828369141 54.10381698608398 94.57492828369141 47.78715515136719 C 94.57492828369141 41.47049331665039 93.33802795410156 35.34330368041992 90.89858245849609 29.57579040527344 C 88.54212951660156 24.00453186035156 85.16847229003906 19.00081634521484 80.87129211425781 14.70364379882812 C 76.57411956787109 10.40647125244141 71.57040405273438 7.032791137695312 65.9991455078125 4.676353454589844 C 60.23163223266602 2.236892700195312 54.10444259643555 0.9999923706054688 47.78778076171875 0.9999923706054688 M 47.78778076171875 -7.62939453125e-06 C 74.17989349365234 -7.62939453125e-06 95.57492828369141 21.39504241943359 95.57492828369141 47.78715515136719 C 95.57492828369141 74.17926788330078 74.17989349365234 95.57430267333984 47.78778076171875 95.57430267333984 C 21.39565277099609 95.57430267333984 0.00061798095703125 74.17926788330078 0.00061798095703125 47.78715515136719 C 0.00061798095703125 21.39504241943359 21.39565277099609 -7.62939453125e-06 47.78778076171875 -7.62939453125e-06 Z" stroke="none" fill="#1a58d3"></path></g><g id="Group_2567" data-name="Group 2567" transform="translate(-515.993 477.082)"><path id="Path_12261" data-name="Path 12261" d="M885.017,702.16h-8.132l-6.585,0a2.44,2.44,0,0,1-2.464-2.01,2.47,2.47,0,0,1-.038-.488c0-7.352,0-17.026,0-26.663a2.444,2.444,0,0,1,2.52-2.516h.855c.6,0,.725-.119.734-.7v-.01c0-.043,0-.087,0-.13a2.309,2.309,0,0,1,.031-.463,1.8,1.8,0,0,1,1.8-1.435,2.116,2.116,0,0,1,.212.011,1.808,1.808,0,0,1,1.561,1.8c0,.092,0,.172,0,.24,0,.254,0,.422.128.556a.646.646,0,0,0,.49.135h1.725c.37,0,.669,0,.941.009h.03a.554.554,0,0,0,.613-.672,1.813,1.813,0,0,1,.532-1.556,1.779,1.779,0,0,1,1.229-.535,1.936,1.936,0,0,1,.754.165,1.68,1.68,0,0,1,1.088,1.627v.016c.019.835.14.95.994.95l.655,0,.653,0c.382,0,.693,0,.979.009h.031a.553.553,0,0,0,.616-.668,1.813,1.813,0,0,1,.551-1.578,1.749,1.749,0,0,1,1.212-.51,2.111,2.111,0,0,1,.758.153,1.738,1.738,0,0,1,1.083,1.624c.012.854.132.973.988.973l.648,0,.644,0c.359,0,.653,0,.923.013h.061a.686.686,0,0,0,.525-.184.706.706,0,0,0,.14-.553,1.746,1.746,0,0,1,.505-1.47,1.819,1.819,0,0,1,1.29-.548,1.9,1.9,0,0,1,.717.144,1.773,1.773,0,0,1,1.091,1.66c0,.1,0,.182,0,.253,0,.252,0,.419.128.553s.305.137.589.137l.228,0h.11l.255,0c.082,0,.163,0,.245,0a2.718,2.718,0,0,1,.627.058,2.445,2.445,0,0,1,1.925,2.4c0,9.93,0,18.685,0,26.766a2.441,2.441,0,0,1-2.477,2.453q-3.272,0-6.545,0Zm-15.6-23.963c-.634,0-.754.122-.754.765v2.776q0,8.812,0,17.624a1.7,1.7,0,0,0,1.925,1.93h28.82a1.7,1.7,0,0,0,1.935-1.921q0-10.217,0-20.434c0-.615-.125-.74-.745-.74H869.419Zm31.229-.872c.04,0,.08,0,.12,0l.058,0a.512.512,0,0,0,.378-.14.55.55,0,0,0,.144-.412c0-.471,0-.941,0-1.412,0-.772,0-1.57-.01-2.357a1.636,1.636,0,0,0-1.658-1.658c-.084,0-.168,0-.252,0h-.374c-.815,0-.939.127-.949.969v.011a1.651,1.651,0,0,1-1.059,1.608,1.971,1.971,0,0,1-.784.175,1.755,1.755,0,0,1-1.162-.468,1.817,1.817,0,0,1-.6-1.648.625.625,0,0,0-.128-.482.632.632,0,0,0-.473-.171h-.027c-.287.005-.6.008-.985.008l-.653,0-.65,0c-.875,0-1,.118-1.01.972v.013a1.651,1.651,0,0,1-1.064,1.6,1.968,1.968,0,0,1-.78.174,1.729,1.729,0,0,1-1.14-.452,1.706,1.706,0,0,1-.626-1.384c0-.078,0-.146,0-.206.006-.27.011-.448-.124-.586a.628.628,0,0,0-.478-.136h-.332l-.77,0h-1.217c-.869,0-.991.119-1,.977v.014A1.649,1.649,0,0,1,882,673.93a1.953,1.953,0,0,1-.8.184,1.842,1.842,0,0,1-1.765-2.059.679.679,0,0,0-.135-.533.668.668,0,0,0-.5-.179h-.044c-.266.008-.557.011-.916.011l-.579,0-.582,0h-.569a.626.626,0,0,0-.473.134c-.134.136-.132.31-.129.574,0,.065,0,.139,0,.224a1.78,1.78,0,0,1-1.519,1.8,2.251,2.251,0,0,1-.254.015,1.794,1.794,0,0,1-1.808-1.42,2.21,2.21,0,0,1-.029-.554c0-.08,0-.159,0-.239a.489.489,0,0,0-.523-.537h-.023c-.1,0-.2,0-.295,0h-.555a1.668,1.668,0,0,0-1.845,1.836q0,1.237,0,2.473v.916c0,.633.122.752.767.752h30.976l.125,0Zm-19.42-8.7a.96.96,0,0,0-.916,1.008c-.017.761-.01,1.534,0,2.281l0,.22a1.415,1.415,0,0,0,.1.494.845.845,0,0,0,.814.552.855.855,0,0,0,.845-.564,1.628,1.628,0,0,0,.1-.6c0-.264,0-.534,0-.8v-.6h0q0-.045,0-.091c0-.284,0-.578,0-.868a.994.994,0,0,0-.434-.875A.933.933,0,0,0,881.227,668.629Zm15.069,0a.956.956,0,0,0-.924,1.025c-.012.834-.006,1.663,0,2.464a1.517,1.517,0,0,0,.081.447.848.848,0,0,0,.841.62h.014a.853.853,0,0,0,.849-.623,1.786,1.786,0,0,0,.082-.555c0-.258,0-.516,0-.775v-.589h0q0-.055,0-.109c0-.29,0-.59,0-.888a.965.965,0,0,0-.906-1.017Zm-7.531,0a.956.956,0,0,0-.924,1.025c-.012.832-.006,1.662,0,2.464a1.516,1.516,0,0,0,.081.447.848.848,0,0,0,.841.62h.014a.853.853,0,0,0,.849-.622,1.791,1.791,0,0,0,.081-.555c0-.258,0-.515,0-.773v-.591h0q0-.055,0-.11c0-.29,0-.59,0-.887a.965.965,0,0,0-.906-1.017Zm-15.063,0a.971.971,0,0,0-.926,1.058c-.006.273,0,.541,0,.852,0,.145,0,.3,0,.464v.014l0,.014a3.425,3.425,0,0,1,0,.466,3.35,3.35,0,0,0,.069,1.023.848.848,0,0,0,.855.663h.013a.85.85,0,0,0,.86-.673l0-.016a1.63,1.63,0,0,0,.061-.382c.005-.864.009-1.643,0-2.429a.974.974,0,0,0-.908-1.056Z" fill="#1a58d3"></path><path id="Path_12262" data-name="Path 12262" d="M922.322,814.423q-.829,0-1.658,0c-.345,0-.486-.145-.488-.493-.006-1.145-.006-2.261,0-3.315,0-.329.146-.476.467-.478q.835-.005,1.669-.005t1.68.005c.321,0,.466.149.471.477.005.385,0,.777,0,1.156q0,.259,0,.517t0,.49c0,.377,0,.767,0,1.149,0,.352-.145.5-.485.5Q923.151,814.423,922.322,814.423Zm.46-.873c.094,0,.189,0,.283,0h.018a.475.475,0,0,0,.514-.516c0-.486,0-.966,0-1.537a.466.466,0,0,0-.5-.5l-.8,0q-.372,0-.744,0h0a.5.5,0,0,0-.374.137.545.545,0,0,0-.138.4c0,.52,0,1.025,0,1.5a.514.514,0,0,0,.137.382.506.506,0,0,0,.375.138h.016c.1,0,.207,0,.311,0h.9Z" transform="translate(-47.585 -129.378)" fill="#1a58d3"></path><path id="Path_12263" data-name="Path 12263" d="M997.176,814.422l-1,0q-.321,0-.641,0c-.367,0-.5-.143-.506-.512-.005-1.164-.005-2.237,0-3.281,0-.349.142-.493.486-.495q.829,0,1.658,0t1.658,0c.344,0,.485.145.487.494.005,1.039.005,2.113,0,3.281,0,.37-.138.509-.5.513q-.322,0-.643,0ZM996.448,811a.569.569,0,0,0-.413.146.542.542,0,0,0-.138.406c.008.428.008.893,0,1.463a.533.533,0,0,0,.139.4.514.514,0,0,0,.382.141h.025c.1,0,.191,0,.287,0h.52c.524,0,.813,0,1.013-.211s.191-.481.191-1.036c0-.077,0-.153,0-.23,0-.177,0-.344,0-.512a.542.542,0,0,0-.134-.419.535.535,0,0,0-.408-.149h-.018c-.227,0-.462.006-.7.006s-.486,0-.729-.006Z" transform="translate(-115.594 -129.379)" fill="#1a58d3"></path><path id="Path_12264" data-name="Path 12264" d="M1073.031,814.423h-.988l-1.006,0q-.32,0-.64,0c-.37,0-.509-.141-.511-.506-.005-1.092-.005-2.2,0-3.281,0-.353.141-.5.48-.5q.827,0,1.654,0t1.661,0c.348,0,.49.143.492.488.006,1.123.006,2.238,0,3.315,0,.34-.146.48-.5.484Q1073.353,814.424,1073.031,814.423Zm-1-.873q.364,0,.728,0h.012a.532.532,0,0,0,.4-.146.526.526,0,0,0,.134-.4c-.005-.176,0-.357,0-.532,0-.082,0-.165,0-.247,0-.547,0-.821-.192-1.022s-.5-.21-1.01-.21h-.5c-.1,0-.192,0-.287,0h-.037a.527.527,0,0,0-.392.144.547.547,0,0,0-.14.415c.008.436.008.9,0,1.464a.488.488,0,0,0,.535.536h.012Q1071.667,813.55,1072.035,813.55Z" transform="translate(-183.601 -129.379)" fill="#1a58d3"></path><path id="Path_12265" data-name="Path 12265" d="M1146.892,814.425q-.828,0-1.655,0c-.347,0-.49-.143-.494-.489,0-.387,0-.782,0-1.164q0-.254,0-.509t0-.5c0-.372,0-.758,0-1.135,0-.345.148-.486.5-.488q.827,0,1.654,0t1.661,0c.328,0,.475.146.477.469.007,1.122.007,2.248,0,3.349,0,.322-.149.467-.477.469Q1147.722,814.425,1146.892,814.425Zm-.75-3.427a.531.531,0,0,0-.4.144.548.548,0,0,0-.14.409c.008.428.008.893,0,1.464a.488.488,0,0,0,.531.541h.012q.361,0,.723,0t.742,0h.012a.55.55,0,0,0,.4-.143.524.524,0,0,0,.137-.391c-.005-.43-.006-.893,0-1.5a.518.518,0,0,0-.137-.384.5.5,0,0,0-.373-.138h-.016c-.1,0-.2,0-.3,0h-.892c-.086,0-.173,0-.259,0Z" transform="translate(-251.612 -129.38)" fill="#1a58d3"></path><path id="Path_12266" data-name="Path 12266" d="M922.3,889.278q-.817,0-1.633,0c-.349,0-.492-.143-.494-.487-.006-1.1-.006-2.219,0-3.315,0-.343.145-.484.495-.486q.827,0,1.655,0t1.661,0a.415.415,0,0,1,.477.471c.006.392,0,.792,0,1.179q0,.264,0,.527,0,.237,0,.474c0,.371,0,.755,0,1.131s-.143.5-.512.505Q923.127,889.278,922.3,889.278Zm.452-.874c.091,0,.182,0,.273,0h.039a.527.527,0,0,0,.392-.144.547.547,0,0,0,.14-.414c-.008-.436-.008-.9,0-1.464a.488.488,0,0,0-.535-.537h-.012q-.368,0-.737,0t-.728,0h-.012a.526.526,0,0,0-.4.143.532.532,0,0,0-.138.4c.007.568.007,1.033,0,1.464a.543.543,0,0,0,.14.412.529.529,0,0,0,.394.144h.039c.09,0,.181,0,.272,0h.871Z" transform="translate(-47.585 -197.386)" fill="#1a58d3"></path><path id="Path_12267" data-name="Path 12267" d="M997.173,889.283q-.829,0-1.657,0c-.343,0-.484-.145-.485-.495-.006-1.183-.006-2.267,0-3.315a.415.415,0,0,1,.471-.476c.226,0,.451,0,.677,0h2.014q.31,0,.62,0c.366,0,.5.143.5.513.005,1.181,0,2.255,0,3.281,0,.349-.143.492-.487.494Q998,889.283,997.173,889.283Zm.034-.877c.235,0,.444,0,.639.01h.04a.567.567,0,0,0,.433-.161.617.617,0,0,0,.135-.478c-.009-.136-.007-.275,0-.421,0-.07,0-.141,0-.211s0-.151,0-.227c0-.17,0-.346,0-.517a.487.487,0,0,0-.531-.545h-.012q-.38,0-.76.005c-.25,0-.48,0-.7-.006h-.017a.529.529,0,0,0-.393.144.574.574,0,0,0-.141.427c.008.517.008.984,0,1.428a.546.546,0,0,0,.14.414.538.538,0,0,0,.4.146h.018C996.683,888.411,996.946,888.407,997.207,888.407Z" transform="translate(-115.592 -197.391)" fill="#1a58d3"></path><path id="Path_12268" data-name="Path 12268" d="M1072.019,889.284q-.829,0-1.657,0c-.328,0-.475-.146-.477-.468-.007-1.1-.007-2.229,0-3.349,0-.32.149-.465.478-.47q.331,0,.662,0h2.011q.319,0,.638,0c.351,0,.495.145.5.486.006,1.1.006,2.214,0,3.315,0,.344-.145.485-.494.487Q1072.848,889.284,1072.019,889.284Zm-.756-3.426a.51.51,0,0,0-.379.141.517.517,0,0,0-.134.387c0,.173,0,.351,0,.523q0,.112,0,.224t0,.226c0,.172,0,.349,0,.521a.523.523,0,0,0,.135.392.5.5,0,0,0,.375.14c.263,0,.519,0,.775,0l.769,0a.494.494,0,0,0,.366-.135.5.5,0,0,0,.135-.37c0-.458,0-1,0-1.537a.5.5,0,0,0-.135-.372.539.539,0,0,0-.391-.14l-.785,0-.725,0Z" transform="translate(-183.599 -197.392)" fill="#1a58d3"></path><path id="Path_12269" data-name="Path 12269" d="M1146.88,889.277q-.829,0-1.658,0c-.343,0-.483-.146-.484-.5-.006-1.19-.006-2.274,0-3.315,0-.327.147-.473.47-.475q.837-.005,1.675-.005t1.674.005c.319,0,.463.15.468.48.005.385,0,.778,0,1.159q0,.257,0,.514t0,.494c0,.376,0,.764,0,1.145,0,.35-.146.493-.488.5Q1147.708,889.277,1146.88,889.277Zm-.739-3.428a.536.536,0,0,0-.4.149.547.547,0,0,0-.134.424c.006.152,0,.3,0,.463,0,.07,0,.14,0,.21s0,.153,0,.23c0,.177,0,.344,0,.513a.546.546,0,0,0,.135.421.538.538,0,0,0,.4.149h.018c.228,0,.461-.006.713-.006s.5,0,.75.005h.011a.521.521,0,0,0,.386-.141.557.557,0,0,0,.139-.406c-.006-.49-.006-.983,0-1.465a.536.536,0,0,0-.139-.4.523.523,0,0,0-.388-.142h-.011q-.376,0-.752.005c-.252,0-.485,0-.711-.006Z" transform="translate(-251.606 -197.385)" fill="#1a58d3"></path><path id="Path_12270" data-name="Path 12270" d="M922.324,964.132q-.835,0-1.67,0c-.329,0-.477-.146-.479-.467-.007-1.092-.007-2.219,0-3.349,0-.323.148-.468.475-.47q.835-.005,1.67,0t1.646,0c.359,0,.494.142.5.519s0,.774,0,1.152q0,.244,0,.487t0,.5c0,.372,0,.757,0,1.134,0,.346-.147.489-.493.49Q923.147,964.132,922.324,964.132Zm-.737-3.427a.562.562,0,0,0-.415.151.539.539,0,0,0-.132.413c.007.159.005.318,0,.486,0,.074,0,.147,0,.221s0,.153,0,.229c0,.17,0,.346,0,.516a.487.487,0,0,0,.533.543h.012q.366,0,.733,0t.733,0h.013a.488.488,0,0,0,.534-.537c-.007-.564-.007-1.029,0-1.464a.5.5,0,0,0-.546-.558h-.018q-.356.006-.712.006t-.716-.006Z" transform="translate(-47.584 -265.393)" fill="#1a58d3"></path><path id="Path_12271" data-name="Path 12271" d="M997.173,964.138q-.829,0-1.657,0c-.343,0-.484-.145-.486-.495-.006-1.174-.006-2.258,0-3.315,0-.329.143-.472.471-.477.221,0,.442,0,.663,0h2.013q.318,0,.635,0c.367,0,.5.143.505.512.005,1.172.005,2.245,0,3.281,0,.349-.143.493-.486.495Q998,964.138,997.173,964.138Zm-.738-3.428a.532.532,0,0,0-.4.145.572.572,0,0,0-.141.418c.009.557.009,1.011,0,1.426a.555.555,0,0,0,.14.423.538.538,0,0,0,.407.148h.05c.078,0,.163-.005.266-.005l.219,0,.221,0c.565,0,.849,0,1.052-.2s.2-.488.2-1.054c0-.074,0-.148,0-.221,0-.168,0-.326,0-.484a.59.59,0,0,0-.135-.441.547.547,0,0,0-.414-.153h-.025c-.221.005-.448.008-.691.008s-.47,0-.735-.007Z" transform="translate(-115.592 -265.399)" fill="#1a58d3"></path><path id="Path_12272" data-name="Path 12272" d="M1072.027,964.133h-.986l-.619,0c-.4,0-.533-.133-.535-.516,0-1.038,0-2.1,0-3.247,0-.391.134-.524.524-.525q.812,0,1.624,0t1.624,0c.375,0,.515.137.517.5.005,1.054.006,2.127,0,3.281,0,.367-.14.5-.509.509q-.32,0-.64,0Zm0-.871q.37,0,.74,0h.012a.523.523,0,0,0,.388-.142.535.535,0,0,0,.139-.4c-.006-.483-.006-.975,0-1.465a.556.556,0,0,0-.139-.406.52.52,0,0,0-.386-.141h-.011q-.374,0-.748.005c-.252,0-.486,0-.715-.006h-.017a.539.539,0,0,0-.406.149.545.545,0,0,0-.135.422c.006.158.005.315,0,.481,0,.076,0,.152,0,.227s0,.15,0,.225c0,.172,0,.349,0,.522a.519.519,0,0,0,.134.39.505.505,0,0,0,.377.14C1071.524,963.263,1071.778,963.262,1072.031,963.262Z" transform="translate(-183.602 -265.397)" fill="#1a58d3"></path><path id="Path_12273" data-name="Path 12273" d="M1146.882,964.141q-.82,0-1.641,0c-.363,0-.5-.141-.5-.515,0-1.035,0-2.128,0-3.247,0-.39.134-.523.525-.526q.311,0,.622,0h.984l.995,0q.322,0,.645,0c.376,0,.517.138.519.5.005,1.053.005,2.126,0,3.281,0,.369-.139.507-.506.509Q1147.7,964.141,1146.882,964.141Zm0-.874q.37,0,.74,0h.012a.523.523,0,0,0,.388-.142.535.535,0,0,0,.139-.4c-.006-.482-.006-.975,0-1.465a.557.557,0,0,0-.139-.406.521.521,0,0,0-.387-.141h-.011q-.375.005-.75.005c-.252,0-.485,0-.713-.006h-.018a.538.538,0,0,0-.405.149.544.544,0,0,0-.134.422c.006.158,0,.315,0,.481,0,.076,0,.152,0,.228s0,.151,0,.226c0,.171,0,.349,0,.521a.52.52,0,0,0,.134.391.5.5,0,0,0,.376.14C1146.379,963.269,1146.633,963.267,1146.886,963.267Z" transform="translate(-251.611 -265.402)" fill="#1a58d3"></path></g></g><g id="Group_2560" data-name="Group 2560" transform="translate(386.128 1546.247)"><circle id="Ellipse_45" data-name="Ellipse 45" cx="12.723" cy="12.723" r="12.723" fill="#1a58d3"></circle><path id="Path_12257" data-name="Path 12257" d="M8360.22,10002.886a.842.842,0,0,1-.718-.422c-.835-1.131-1.664-2.262-2.516-3.381-.313-.414-.684-.789-1.025-1.184a.549.549,0,0,1,0-.855,3.655,3.655,0,0,1,.635-.57,1.067,1.067,0,0,1,1.392.225c.586.609,1.148,1.24,1.677,1.9.447.557.434.588.915.051a24.27,24.27,0,0,1,3.263-3.111,10.682,10.682,0,0,1,4.624-2.23,2.146,2.146,0,0,1,.591-.033.335.335,0,0,1,.228.2.325.325,0,0,1-.141.262c-.321.213-.666.389-.987.6a16.2,16.2,0,0,0-3.229,2.92c-.986,1.133-1.916,2.316-2.852,3.492-.347.438-.63.926-.962,1.375a4.927,4.927,0,0,1-.6.646A.765.765,0,0,1,8360.22,10002.886Z" transform="translate(-8349.133 -9984.098)" fill="#fafafa"></path></g></g></svg>