<svg xmlns="http://www.w3.org/2000/svg" width="95.574" height="95.574" viewBox="0 0 95.574 95.574"><g id="Group_2603" data-name="Group 2603" transform="translate(-1095 -1476.12)"><g id="Group_2579" data-name="Group 2579" transform="translate(30 365)"><g id="Union_22" data-name="Union 22" transform="translate(1065 1111.12)" fill="none"><path d="M47.788,0A47.787,47.787,0,1,1,0,47.787,47.787,47.787,0,0,1,47.788,0Z" stroke="none"></path><path d="M 47.78778076171875 0.9999923706054688 C 41.47111892700195 0.9999923706054688 35.34391784667969 2.236892700195312 29.57640838623047 4.676353454589844 C 24.00514221191406 7.032791137695312 19.00143432617188 10.40647125244141 14.70425415039062 14.70364379882812 C 10.40708160400391 19.00081634521484 7.033416748046875 24.00453186035156 4.676971435546875 29.57579040527344 C 2.237518310546875 35.34330368041992 1.000617980957031 41.47049331665039 1.000617980957031 47.78715515136719 C 1.000617980957031 54.10381698608398 2.237518310546875 60.23100662231445 4.676971435546875 65.99851989746094 C 7.033416748046875 71.56977844238281 10.40708160400391 76.57349395751953 14.70425415039062 80.87066650390625 C 19.00143432617188 85.1678466796875 24.00514221191406 88.54150390625 29.57640838623047 90.89795684814453 C 35.34391784667969 93.33740234375 41.47111892700195 94.57430267333984 47.78778076171875 94.57430267333984 C 54.10444259643555 94.57430267333984 60.23163223266602 93.33740234375 65.9991455078125 90.89795684814453 C 71.57040405273438 88.54150390625 76.57411956787109 85.1678466796875 80.87129211425781 80.87066650390625 C 85.16847229003906 76.57349395751953 88.54212951660156 71.56977844238281 90.89858245849609 65.99851989746094 C 93.33802795410156 60.23100662231445 94.57492828369141 54.10381698608398 94.57492828369141 47.78715515136719 C 94.57492828369141 41.47049331665039 93.33802795410156 35.34330368041992 90.89858245849609 29.57579040527344 C 88.54212951660156 24.00453186035156 85.16847229003906 19.00081634521484 80.87129211425781 14.70364379882812 C 76.57411956787109 10.40647125244141 71.57040405273438 7.032791137695312 65.9991455078125 4.676353454589844 C 60.23163223266602 2.236892700195312 54.10444259643555 0.9999923706054688 47.78778076171875 0.9999923706054688 M 47.78778076171875 -7.62939453125e-06 C 74.17989349365234 -7.62939453125e-06 95.57492828369141 21.39504241943359 95.57492828369141 47.78715515136719 C 95.57492828369141 74.17926788330078 74.17989349365234 95.57430267333984 47.78778076171875 95.57430267333984 C 21.39565277099609 95.57430267333984 0.00061798095703125 74.17926788330078 0.00061798095703125 47.78715515136719 C 0.00061798095703125 21.39504241943359 21.39565277099609 -7.62939453125e-06 47.78778076171875 -7.62939453125e-06 Z" stroke="none" fill="#1a58d3"></path></g><g id="Group_2572" data-name="Group 2572" transform="translate(-329.432 -84.904)"><path id="Path_12275" data-name="Path 12275" d="M1471.262,1402.435a16.444,16.444,0,0,1-10.757-3.976,16.822,16.822,0,0,1-6.053-11.246,16.322,16.322,0,0,1,.118-4.48l.009-.062c.014-.086.028-.175.035-.268a.406.406,0,0,0-.053-.222c-.011-.022-.024-.051-.041-.091l-.135-.321-.761.531c-.364.254-.714.5-1.065.743l-.147.1a4.055,4.055,0,0,1-.439.285.73.73,0,0,1-.341.094.513.513,0,0,1-.443-.26.518.518,0,0,1,.155-.773c1.4-.976,2.7-1.854,3.955-2.684a.687.687,0,0,1,.365-.134c.061,0,.244,0,.474.331.939,1.356,1.782,2.592,2.575,3.778a.787.787,0,0,1,.159.58.512.512,0,0,1-.234.329.618.618,0,0,1-.334.119c-.188,0-.377-.138-.561-.411-.292-.431-.573-.859-.87-1.312l-.659-1-.214.452c-.743,1.571-.619,4.327.33,7.372s2.457,5.558,4.045,6.757l.38.287.068-.472c.018-.123.033-.244.049-.364.032-.249.063-.484.108-.715a5.137,5.137,0,0,1,5.041-4.16h.171c.192,0,.35,0,.482.007.1,0,.184,0,.257,0,.62,0,.72-.246.938-.786.068-.167.151-.375.272-.64.422-.932.38-1.09-.457-1.69l-.021-.015a5.555,5.555,0,0,1-2.362-4.749,3.152,3.152,0,0,0-.318-1.378,6.264,6.264,0,0,1-.431-4.368,3.478,3.478,0,0,1,1.885-2.2,7.015,7.015,0,0,1,3.508-.853,11.227,11.227,0,0,1,1.422.1,1.651,1.651,0,0,0,.207.015.833.833,0,0,0,.686-.33,2.7,2.7,0,0,1,2.169-1.1,3.775,3.775,0,0,1,1.167.2,4.09,4.09,0,0,1,2.922,4.257,13.873,13.873,0,0,1-1.564,4.348,1.91,1.91,0,0,0-.293,1.1,5.557,5.557,0,0,1-1.88,4.616.785.785,0,0,0-.223.964c.251.61.49,1.234.713,1.853a.782.782,0,0,0,.812.56l.256,0,.313,0a6.065,6.065,0,0,1,1.211.095,5.225,5.225,0,0,1,4.167,4.635c0,.022,0,.046,0,.069a.531.531,0,0,0,.292.545.46.46,0,0,0,.177.036.557.557,0,0,0,.431-.256c.013-.017.026-.033.04-.047a16.3,16.3,0,0,0,2.2-2.954l.091-.158c.048-.083.1-.166.145-.249.128-.213.336-.466.6-.466a.575.575,0,0,1,.276.08c.448.248.294.694.162.938a16.89,16.89,0,0,1-2.349,3.333,16.676,16.676,0,0,1-10.481,5.532A18.955,18.955,0,0,1,1471.262,1402.435Zm-4.923-10.1c-.043,0-.088,0-.133,0a4.112,4.112,0,0,0-4.242,3.693,5.55,5.55,0,0,0-.032.83c0,.21,0,.408-.011.6a1.135,1.135,0,0,0,.589,1.113,16.168,16.168,0,0,0,9.324,2.693h.186a14.86,14.86,0,0,0,8.39-2.735c.027-.019.056-.037.085-.055a.746.746,0,0,0,.434-.625c0-.132.005-.265.009-.4a5.568,5.568,0,0,0-.394-2.728,4.209,4.209,0,0,0-4.152-2.394,1.248,1.248,0,0,0-1.113.571c-1.1,1.551-2.244,3.124-3.229,4.477-.145.2-.37.436-.616.436s-.473-.239-.619-.44q-.385-.529-.772-1.058c-.774-1.058-1.574-2.152-2.326-3.249A1.537,1.537,0,0,0,1466.339,1392.335Zm3.656-3.248a.687.687,0,0,0-.616.509l-.192.438c-.2.455-.4.924-.616,1.38a.961.961,0,0,0,.106,1.062c.827,1.126,1.547,2.129,2.2,3.067a.6.6,0,0,0,1.111.008c.605-.848,1.236-1.7,1.846-2.525l.386-.522a.829.829,0,0,0,.164-.845c-.306-.8-.6-1.615-.852-2.312a.591.591,0,0,0-.573-.454.9.9,0,0,0-.25.039,5.987,5.987,0,0,1-1.673.255,4.734,4.734,0,0,1-.893-.084A.714.714,0,0,0,1470,1389.087Zm-1.946-8.661a.746.746,0,0,0-.745.368c-.062.119-.125.236-.188.353a4.174,4.174,0,0,0-.715,2.867,4.648,4.648,0,0,0,3.3,3.893,4.468,4.468,0,0,0,1.364.224,4.383,4.383,0,0,0,3.286-1.621,4.966,4.966,0,0,0,1.123-2.734,3.015,3.015,0,0,0-.785-2.374,2.523,2.523,0,0,1-.263-.392,1.06,1.06,0,0,0-1.019-.593h-.051c-.318.008-.665.012-1.092.012l-.709,0-.712,0h-2.794Zm2.784-1.166q1.631,0,3.262,0a1.185,1.185,0,0,1,1.051.565c.15.226.3.45.465.691l.5.732.222-.4a10.7,10.7,0,0,0,.945-2.685l.04-.159a2.984,2.984,0,0,0-2.021-3.592,2.364,2.364,0,0,0-.721-.122,1.809,1.809,0,0,0-1.53.871c-.45.665-.513.726-.75.726a4.929,4.929,0,0,1-.7-.092l-.074-.013a9.309,9.309,0,0,0-1.576-.143,6.107,6.107,0,0,0-2.8.633,3.112,3.112,0,0,0-1.428,4.161l.221.5.278-.47c.03-.051.06-.1.09-.147a3.13,3.13,0,0,0,.193-.339,1.2,1.2,0,0,1,1.185-.714Q1469.257,1379.259,1470.833,1379.26Z" transform="translate(-29.143 -129.904)" fill="#1a58d3" stroke="rgba(0,0,0,0)" stroke-width="1"></path><path id="Path_12276" data-name="Path 12276" d="M1495.372,1260.366c-.075,0-.305,0-.572-.387-.939-1.362-1.76-2.572-2.508-3.7a.741.741,0,0,1-.144-.609.553.553,0,0,1,.336-.333.674.674,0,0,1,.255-.058c.065,0,.265,0,.49.331.309.455.614.913.945,1.408l.795,1.189.154-.615c.023-.091.044-.166.063-.231a1.7,1.7,0,0,0,.074-.343,15.746,15.746,0,0,0-3.6-11.659,15.08,15.08,0,0,0-9.946-5.589,19.383,19.383,0,0,0-2.42-.157,15.467,15.467,0,0,0-12.656,6.46c-.077.1-.149.2-.222.3-.1.143-.2.278-.3.4a.573.573,0,0,1-.434.212.565.565,0,0,1-.326-.108.494.494,0,0,1-.183-.707,4.235,4.235,0,0,1,.721-1.057.843.843,0,0,0-.006-1.271c-1.357-1.629-2.724-3.3-4.046-4.907l-1.237-1.508-.052-.063c-.174-.209-.28-.345-.266-.518a.587.587,0,0,1,.372-.542.5.5,0,0,1,.192-.042.535.535,0,0,1,.392.21c.454.51.9,1.05,1.324,1.572l.765.932c1.058,1.29,2.153,2.623,3.211,3.948a.854.854,0,0,0,.632.4.959.959,0,0,0,.62-.321,16.416,16.416,0,0,1,9.51-4.376l.033,0c1.321-.148,1.428-.268,1.428-1.6,0-.194,0-.389,0-.583,0-.445-.008-.9.01-1.353a.886.886,0,0,0-.193-.665.816.816,0,0,0-.62-.214h-.046c-.375.009-.776.013-1.26.013-.347,0-.694,0-1.041,0l-.585,0c-.864,0-.977-.115-1.011-.993a5.5,5.5,0,0,1,2.963-5.455.628.628,0,0,0,.347-.4.641.641,0,0,0-.168-.518,1.1,1.1,0,0,1-.064-.093,2.916,2.916,0,0,1-.058-3.074,2.886,2.886,0,0,1,2.65-1.558h.05a2.944,2.944,0,0,1,2.563,1.553,3.005,3.005,0,0,1-.069,3.059.829.829,0,0,0-.165.656.9.9,0,0,0,.447.478,5.587,5.587,0,0,1,2.623,5.684c-.032.365-.16.564-.741.57-.6.006-1.24.013-1.873.013-.585,0-1.1-.005-1.591-.017h-.052a.865.865,0,0,0-.642.215.91.91,0,0,0-.192.68c.022.555.017,1.123.013,1.672,0,.246,0,.491,0,.736,0,.885.124,1.018,1.01,1.091a16.094,16.094,0,0,1,3.733.784,16.948,16.948,0,0,1,6.318,3.741.881.881,0,0,0,.571.293.8.8,0,0,0,.6-.378c1.258-1.56,2.552-3.136,3.8-4.66l1.256-1.532.067-.083c.052-.066.1-.128.153-.181a.651.651,0,0,1,.457-.224.533.533,0,0,1,.341.132.527.527,0,0,1,.073.781c-.456.581-.936,1.161-1.4,1.723l-.492.6-.857,1.045c-.888,1.084-1.807,2.2-2.723,3.3a.862.862,0,0,0-.041,1.244,17.3,17.3,0,0,1,3.483,12.354.364.364,0,0,1-.007.038.415.415,0,0,0,.221.521.423.423,0,0,0,.176.039.553.553,0,0,0,.34-.139l.036-.027q.322-.213.643-.429c.348-.233.708-.474,1.064-.7a1.036,1.036,0,0,1,.533-.195.48.48,0,0,1,.414.252c.086.131.314.48-.3.9-.974.669-2.259,1.55-3.563,2.429A1.1,1.1,0,0,1,1495.372,1260.366Zm-15.853-32.183a4.674,4.674,0,0,0-.969.1,4.266,4.266,0,0,0-3.362,3.834.858.858,0,0,0,.183.652.78.78,0,0,0,.594.2h.032c.437-.008.913-.011,1.5-.011l.981,0,.983,0,1,0,1,0c.611,0,1.107,0,1.562.009h.025a.775.775,0,0,0,.62-.225.742.742,0,0,0,.139-.62c-.007-.054-.012-.109-.017-.164a2.585,2.585,0,0,0-.044-.325A4.269,4.269,0,0,0,1479.518,1228.183Zm-.031-4.892a1.868,1.868,0,0,0-1.866,1.887,1.924,1.924,0,0,0,1.853,1.869h.028a2,2,0,0,0,1.878-1.9,1.822,1.822,0,0,0-.535-1.3,1.885,1.885,0,0,0-1.348-.557h-.01Z" transform="translate(-37.052 -0.027)" fill="#1a58d3" stroke="rgba(0,0,0,0)" stroke-width="1"></path><path id="Path_12277" data-name="Path 12277" d="M1699.167,1234.155q-.906,0-1.811,0c-.715,0-.865-.154-.893-.9a5.982,5.982,0,0,1,1.265-4.187,4.65,4.65,0,0,1,1.4-1.173.658.658,0,0,0,.291-1.1,2.993,2.993,0,0,1,.226-3.542,2.947,2.947,0,0,1,2.307-1.1,3.047,3.047,0,0,1,3.044,3.074,2.777,2.777,0,0,1-.5,1.62.69.69,0,0,0-.163.536.714.714,0,0,0,.379.442c2.035,1.21,2.924,3.1,2.719,5.788-.021.277-.121.534-.7.539q-1.047.007-2.094.006l-2.692,0Zm2.73-5.883a4.348,4.348,0,0,0-4.262,4,.816.816,0,0,0,.177.622.774.774,0,0,0,.578.2h.029c.445-.007.929-.011,1.524-.011l1.014,0,.975,0h3.414c.321,0,.6,0,.774-.19s.159-.462.135-.807a4.282,4.282,0,0,0-4.309-3.814Zm.061-4.963a1.914,1.914,0,0,0-1.354.58,1.8,1.8,0,0,0-.533,1.3,1.969,1.969,0,0,0,1.854,1.877h.031a1.941,1.941,0,0,0,1.874-1.884,1.841,1.841,0,0,0-.525-1.325,1.873,1.873,0,0,0-1.343-.547Z" transform="translate(-240.021 -0.045)" fill="#1a58d3" stroke="rgba(0,0,0,0)" stroke-width="1"></path><path id="Path_12278" data-name="Path 12278" d="M1422.661,1234.109h-4c-.693,0-1.193,0-1.341-.147s-.148-.614-.154-1.326a5.494,5.494,0,0,1,1.373-3.722,4.876,4.876,0,0,1,1.3-1.073.79.79,0,0,0,.414-.459.821.821,0,0,0-.16-.626,2.843,2.843,0,0,1,.054-3.307,2.772,2.772,0,0,1,2.391-1.349,3.454,3.454,0,0,1,.506.039,2.881,2.881,0,0,1,2.507,2.23,2.772,2.772,0,0,1-.391,2.428.714.714,0,0,0-.168.558.723.723,0,0,0,.4.441,5.636,5.636,0,0,1,2.729,5.723c-.031.378-.165.584-.778.587q-1.01.005-2.02,0Zm-.033-5.869a4.67,4.67,0,0,0-1.062.124,4.285,4.285,0,0,0-3.23,3.767.916.916,0,0,0,.181.7.84.84,0,0,0,.631.216h.047c.43-.01.9-.014,1.472-.014l.985,0,.988,0,1.012,0,1,0c.593,0,1.075,0,1.517.013h.035a.774.774,0,0,0,.613-.22.82.82,0,0,0,.148-.656,4.61,4.61,0,0,0-.574-1.794A4.316,4.316,0,0,0,1422.628,1228.24Zm0-4.975a1.782,1.782,0,0,0-1.855,1.86,1.96,1.96,0,0,0,.5,1.348,1.73,1.73,0,0,0,1.278.558,2.037,2.037,0,0,0,1.979-1.891,1.793,1.793,0,0,0-.529-1.289,1.938,1.938,0,0,0-1.368-.585Z" fill="#1a58d3" stroke="rgba(0,0,0,0)" stroke-width="1"></path></g></g><g id="Group_2597" data-name="Group 2597" transform="translate(1163 1546.247)"><circle id="Ellipse_45" data-name="Ellipse 45" cx="12.723" cy="12.723" r="12.723" fill="#1a58d3"></circle><path id="Path_12257" data-name="Path 12257" d="M8360.22,10002.886a.842.842,0,0,1-.718-.422c-.835-1.131-1.664-2.262-2.516-3.381-.313-.414-.684-.789-1.025-1.184a.549.549,0,0,1,0-.855,3.655,3.655,0,0,1,.635-.57,1.067,1.067,0,0,1,1.392.225c.586.609,1.148,1.24,1.677,1.9.447.557.434.588.915.051a24.27,24.27,0,0,1,3.263-3.111,10.682,10.682,0,0,1,4.624-2.23,2.146,2.146,0,0,1,.591-.033.335.335,0,0,1,.228.2.325.325,0,0,1-.141.262c-.321.213-.666.389-.987.6a16.2,16.2,0,0,0-3.229,2.92c-.986,1.133-1.916,2.316-2.852,3.492-.347.438-.63.926-.962,1.375a4.927,4.927,0,0,1-.6.646A.765.765,0,0,1,8360.22,10002.886Z" transform="translate(-8349.133 -9984.098)" fill="#fafafa"></path></g></g></svg>