<svg xmlns="http://www.w3.org/2000/svg" width="95.574" height="95.574" viewBox="0 0 95.574 95.574"><g id="Group_2600" data-name="Group 2600" transform="translate(-504 -1476.12)"><g id="Group_2576" data-name="Group 2576" transform="translate(-3 365)"><g id="Union_19" data-name="Union 19" transform="translate(507 1111.12)" fill="none"><path d="M47.788,0A47.787,47.787,0,1,1,0,47.787,47.787,47.787,0,0,1,47.788,0Z" stroke="none"></path><path d="M 47.78778076171875 0.9999923706054688 C 41.47111892700195 0.9999923706054688 35.34391784667969 2.236892700195312 29.57640838623047 4.676353454589844 C 24.00514221191406 7.032791137695312 19.00143432617188 10.40647125244141 14.70425415039062 14.70364379882812 C 10.40708160400391 19.00081634521484 7.033416748046875 24.00453186035156 4.676971435546875 29.57579040527344 C 2.237518310546875 35.34330368041992 1.000617980957031 41.47049331665039 1.000617980957031 47.78715515136719 C 1.000617980957031 54.10381698608398 2.237518310546875 60.23100662231445 4.676971435546875 65.99851989746094 C 7.033416748046875 71.56977844238281 10.40708160400391 76.57349395751953 14.70425415039062 80.87066650390625 C 19.00143432617188 85.1678466796875 24.00514221191406 88.54150390625 29.57640838623047 90.89795684814453 C 35.34391784667969 93.33740234375 41.47111892700195 94.57430267333984 47.78778076171875 94.57430267333984 C 54.10444259643555 94.57430267333984 60.23163223266602 93.33740234375 65.9991455078125 90.89795684814453 C 71.57040405273438 88.54150390625 76.57411956787109 85.1678466796875 80.87129211425781 80.87066650390625 C 85.16847229003906 76.57349395751953 88.54212951660156 71.56977844238281 90.89858245849609 65.99851989746094 C 93.33802795410156 60.23100662231445 94.57492828369141 54.10381698608398 94.57492828369141 47.78715515136719 C 94.57492828369141 41.47049331665039 93.33802795410156 35.34330368041992 90.89858245849609 29.57579040527344 C 88.54212951660156 24.00453186035156 85.16847229003906 19.00081634521484 80.87129211425781 14.70364379882812 C 76.57411956787109 10.40647125244141 71.57040405273438 7.032791137695312 65.9991455078125 4.676353454589844 C 60.23163223266602 2.236892700195312 54.10444259643555 0.9999923706054688 47.78778076171875 0.9999923706054688 M 47.78778076171875 -7.62939453125e-06 C 74.17989349365234 -7.62939453125e-06 95.57492828369141 21.39504241943359 95.57492828369141 47.78715515136719 C 95.57492828369141 74.17926788330078 74.17989349365234 95.57430267333984 47.78778076171875 95.57430267333984 C 21.39565277099609 95.57430267333984 0.00061798095703125 74.17926788330078 0.00061798095703125 47.78715515136719 C 0.00061798095703125 21.39504241943359 21.39565277099609 -7.62939453125e-06 47.78778076171875 -7.62939453125e-06 Z" stroke="none" fill="#1a58d3"></path></g><g id="Group_2570" data-name="Group 2570" transform="translate(-356.878 483.948)"><path id="Path_12274" data-name="Path 12274" d="M896.147,696.907a3.509,3.509,0,0,1-2.194-1.54,3.36,3.36,0,0,1,2.793-5.148,3.079,3.079,0,0,1,1.82.5c.2.132.309.081.457-.068q3.831-3.848,7.675-7.683c.2-.2.194-.329.028-.541a6.422,6.422,0,0,1-1.324-3.165c-.028-.214-.107-.294-.317-.292-.579.007-1.159.014-1.737,0-.259-.008-.349.108-.42.337a3.222,3.222,0,0,1-2.614,2.375,3.358,3.358,0,0,1-3.647-4.752,3.146,3.146,0,0,1,2.934-1.9,3.273,3.273,0,0,1,3.329,2.429c.072.231.166.341.422.334.567-.016,1.134-.009,1.7,0,.214,0,.319-.055.35-.3a6.4,6.4,0,0,1,1.325-3.165.336.336,0,0,0-.032-.541q-3.846-3.833-7.674-7.683a.311.311,0,0,0-.458-.065,3.342,3.342,0,0,1-5.069-2.264,3.359,3.359,0,1,1,6.662-.707,3.129,3.129,0,0,1-.41,1.736.33.33,0,0,0,.076.469q3.867,3.863,7.723,7.737a.305.305,0,0,0,.485.035,6.443,6.443,0,0,1,3.078-1.263c.2-.027.305-.088.3-.307-.007-.6-.012-1.207,0-1.81.006-.27-.172-.3-.36-.363a3.234,3.234,0,0,1-2.349-2.6,3.358,3.358,0,0,1,4.772-3.649,3.143,3.143,0,0,1,1.877,2.912,3.269,3.269,0,0,1-2.418,3.335.4.4,0,0,0-.343.453c.015.555.012,1.11,0,1.665,0,.236.068.333.321.365a6.324,6.324,0,0,1,3.045,1.248.321.321,0,0,0,.513-.035q3.841-3.863,7.7-7.713c.14-.14.218-.252.1-.465a3.368,3.368,0,1,1,6.2-2.5c.022.069.047.136.071.2v1.3c-.021.057-.046.112-.061.17a3.366,3.366,0,0,1-5.071,2.018c-.2-.131-.3-.033-.424.094q-3.833,3.844-7.674,7.68c-.2.2-.189.331-.026.541a6.4,6.4,0,0,1,1.316,3.13c.037.279.154.334.4.329.543-.01,1.086-.013,1.628,0a.4.4,0,0,0,.457-.337,3.266,3.266,0,0,1,3.329-2.425,3.146,3.146,0,0,1,2.932,1.9,3.358,3.358,0,0,1-3.649,4.75,3.222,3.222,0,0,1-2.613-2.375c-.071-.228-.16-.344-.419-.337-.579.017-1.158.01-1.737,0-.209,0-.289.076-.317.291a6.407,6.407,0,0,1-1.325,3.165c-.188.24-.142.371.055.567q3.818,3.807,7.619,7.632a.363.363,0,0,0,.545.059,3.354,3.354,0,0,1,4.044.469,3.828,3.828,0,0,1,.994,1.776v1.3a6.268,6.268,0,0,1-.412,1.033,3.57,3.57,0,0,1-2.266,1.646h-1.3c-.056-.021-.112-.044-.169-.062a3.357,3.357,0,0,1-2.115-4.914c.109-.217.034-.326-.1-.464q-3.85-3.851-7.692-7.709a.321.321,0,0,0-.513-.038,6.373,6.373,0,0,1-3.079,1.255c-.217.028-.29.113-.288.32.006.567.012,1.134,0,1.7a.4.4,0,0,0,.338.456,3.267,3.267,0,0,1,2.423,3.329,3.148,3.148,0,0,1-1.9,2.931,3.36,3.36,0,1,1-2.377-6.26.4.4,0,0,0,.339-.455c-.014-.554-.012-1.11,0-1.664,0-.239-.075-.329-.324-.362a6.357,6.357,0,0,1-3.014-1.229.355.355,0,0,0-.568.043q-3.8,3.824-7.618,7.63a.433.433,0,0,0-.1.615,3.351,3.351,0,0,1-.559,3.886,3.8,3.8,0,0,1-1.775.994Zm21.342-18.549a5.487,5.487,0,1,0-5.481,5.5A5.464,5.464,0,0,0,917.488,678.358Zm7.5,15.2a2.214,2.214,0,1,0,2.238-2.2A2.267,2.267,0,0,0,924.988,693.559Zm0-30.382a2.214,2.214,0,1,0,2.218-2.22A2.262,2.262,0,0,0,924.988,663.178ZM896.8,691.36a2.215,2.215,0,1,0,2.216,2.223A2.264,2.264,0,0,0,896.8,691.36Zm2.216-28.155a2.215,2.215,0,1,0-2.257,2.182A2.262,2.262,0,0,0,899.015,663.2Zm13,5.078a2.215,2.215,0,1,0-2.225-2.215A2.267,2.267,0,0,0,912.011,668.283Zm2.2,22.387A2.215,2.215,0,1,0,912,692.893,2.265,2.265,0,0,0,914.215,690.67Zm-12.3-12.3a2.215,2.215,0,1,0-2.224,2.214A2.27,2.27,0,0,0,901.911,678.373Zm20.181,0a2.214,2.214,0,1,0,2.185-2.218A2.265,2.265,0,0,0,922.092,678.376Z" fill="#1a58d3" stroke="rgba(0,0,0,0)" stroke-width="1"></path></g></g><g id="Group_2594" data-name="Group 2594" transform="translate(569.554 1546.247)"><circle id="Ellipse_45" data-name="Ellipse 45" cx="12.723" cy="12.723" r="12.723" fill="#1a58d3"></circle><path id="Path_12257" data-name="Path 12257" d="M8360.22,10002.886a.842.842,0,0,1-.718-.422c-.835-1.131-1.664-2.262-2.516-3.381-.313-.414-.684-.789-1.025-1.184a.549.549,0,0,1,0-.855,3.655,3.655,0,0,1,.635-.57,1.067,1.067,0,0,1,1.392.225c.586.609,1.148,1.24,1.677,1.9.447.557.434.588.915.051a24.27,24.27,0,0,1,3.263-3.111,10.682,10.682,0,0,1,4.624-2.23,2.146,2.146,0,0,1,.591-.033.335.335,0,0,1,.228.2.325.325,0,0,1-.141.262c-.321.213-.666.389-.987.6a16.2,16.2,0,0,0-3.229,2.92c-.986,1.133-1.916,2.316-2.852,3.492-.347.438-.63.926-.962,1.375a4.927,4.927,0,0,1-.6.646A.765.765,0,0,1,8360.22,10002.886Z" transform="translate(-8349.133 -9984.098)" fill="#fafafa"></path></g></g></svg>