<svg xmlns="http://www.w3.org/2000/svg" width="95.574" height="95.574" viewBox="0 0 95.574 95.574"><g id="Group_2604" data-name="Group 2604" transform="translate(-1275 -1476.12)"><g id="Group_2580" data-name="Group 2580" transform="translate(24 365)"><g id="Union_23" data-name="Union 23" transform="translate(1251 1111.12)" fill="none"><path d="M47.788,0A47.787,47.787,0,1,1,0,47.787,47.787,47.787,0,0,1,47.788,0Z" stroke="none"></path><path d="M 47.78778076171875 0.9999923706054688 C 41.47111892700195 0.9999923706054688 35.34391784667969 2.236892700195312 29.57640838623047 4.676353454589844 C 24.00514221191406 7.032791137695312 19.00143432617188 10.40647125244141 14.70425415039062 14.70364379882812 C 10.40708160400391 19.00081634521484 7.033416748046875 24.00453186035156 4.676971435546875 29.57579040527344 C 2.237518310546875 35.34330368041992 1.000617980957031 41.47049331665039 1.000617980957031 47.78715515136719 C 1.000617980957031 54.10381698608398 2.237518310546875 60.23100662231445 4.676971435546875 65.99851989746094 C 7.033416748046875 71.56977844238281 10.40708160400391 76.57349395751953 14.70425415039062 80.87066650390625 C 19.00143432617188 85.1678466796875 24.00514221191406 88.54150390625 29.57640838623047 90.89795684814453 C 35.34391784667969 93.33740234375 41.47111892700195 94.57430267333984 47.78778076171875 94.57430267333984 C 54.10444259643555 94.57430267333984 60.23163223266602 93.33740234375 65.9991455078125 90.89795684814453 C 71.57040405273438 88.54150390625 76.57411956787109 85.1678466796875 80.87129211425781 80.87066650390625 C 85.16847229003906 76.57349395751953 88.54212951660156 71.56977844238281 90.89858245849609 65.99851989746094 C 93.33802795410156 60.23100662231445 94.57492828369141 54.10381698608398 94.57492828369141 47.78715515136719 C 94.57492828369141 41.47049331665039 93.33802795410156 35.34330368041992 90.89858245849609 29.57579040527344 C 88.54212951660156 24.00453186035156 85.16847229003906 19.00081634521484 80.87129211425781 14.70364379882812 C 76.57411956787109 10.40647125244141 71.57040405273438 7.032791137695312 65.9991455078125 4.676353454589844 C 60.23163223266602 2.236892700195312 54.10444259643555 0.9999923706054688 47.78778076171875 0.9999923706054688 M 47.78778076171875 -7.62939453125e-06 C 74.17989349365234 -7.62939453125e-06 95.57492828369141 21.39504241943359 95.57492828369141 47.78715515136719 C 95.57492828369141 74.17926788330078 74.17989349365234 95.57430267333984 47.78778076171875 95.57430267333984 C 21.39565277099609 95.57430267333984 0.00061798095703125 74.17926788330078 0.00061798095703125 47.78715515136719 C 0.00061798095703125 21.39504241943359 21.39565277099609 -7.62939453125e-06 47.78778076171875 -7.62939453125e-06 Z" stroke="none" fill="#1a58d3"></path></g><g id="Group_2574" data-name="Group 2574" transform="translate(-753.3 973.359)"><path id="Path_12283" data-name="Path 12283" d="M2036.181,205.819a.827.827,0,0,1-.149-.013,3.441,3.441,0,0,1-2.887-3.452c.087-12.345-.186-25.564.1-37.94a.732.732,0,0,1,.031-.208c.953-2.994,5.18-2.568,7.684-2.54.475.005,7.286.039,7.286.039,3.234,0,7.053,0,10.857-.009a3.945,3.945,0,0,1,2.821,1.147c3.019,2.822,4.421,3.768,4.615,6.314.241,3.176-.006,6.333-.008,9.484a.528.528,0,0,1-.015.1.537.537,0,0,0,.006.228.807.807,0,0,0,1.411.311c.424-.51.9-.979,1.357-1.438,1.34-1.227,2.5-3.1,4.528-3.089a3.531,3.531,0,0,1,3.452,4.113.842.842,0,0,1-.029.137,5.936,5.936,0,0,1-1.7,2.43c-2.833,2.809-5.568,5.572-8.4,8.38a1.975,1.975,0,0,0-.622,1.519c.016,3.67,0,7.285.012,10.936a3.473,3.473,0,0,1-2.048,3.28,3.013,3.013,0,0,1-1.243.267Zm13.214-42.5c-4.327.045-8.652-.087-12.974.05a.818.818,0,0,0-.145.017,1.757,1.757,0,0,0-1.47,1.52.8.8,0,0,0-.012.13c-.107,5.344,0,10.694-.038,16.041.05,7.083-.089,14.449.047,21.51a.87.87,0,0,0,.007.1,1.985,1.985,0,0,0,2.245,1.558c6.477.041,20.725-.026,25.574,0a1.935,1.935,0,0,0,2.261-1.8c.024-2.1.024-4.228.024-6.29a.917.917,0,0,0-.012-.134c-.071-.515.123-1.519.024-2.227a.812.812,0,0,0-1.067-.655c-1.358.458-2.729,1.036-4.1,1.422-.027.008-.055.013-.083.018-.86.154-2.267,1.236-2.755.052-.16-.35.277-1.332.393-1.731.432-1.289.879-2.621,1.306-3.938a.946.946,0,0,1,.036-.092c.677-1.483,2.265-2.452,3.3-3.67.873-1.124,2.894-2.225,2.968-3.678-.013-3.065-.007-6.092-.008-9.13,0-.863-.262-1.126-1.121-1.127h-3.5a.872.872,0,0,1-.127-.01c-1.047-.153-3.25.619-3.191-.977,0-1.842,0-3.884,0-5.734,0-.97-.248-1.221-1.2-1.221Zm12.04,25.049c-1.2.207-1.425,1.752-1.785,2.727-.138.36-.375,1.047-.113,1.289.575.705,2.249-.334,3.087-.555a.83.83,0,0,0,.15-.051,1.748,1.748,0,0,0,.737-.673.818.818,0,0,0-.046-.952C2062.909,189.449,2061.8,188.317,2061.435,188.363Zm8.417-8.2a.766.766,0,0,0-.486.032,1.149,1.149,0,0,0-.369.283c-1.875,1.878-3.891,3.9-5.761,5.762a.864.864,0,0,0-.006,1.3c.718.528,1.625,2.289,2.586,1.284,1.921-1.931,3.868-3.881,5.788-5.8a1.126,1.126,0,0,0,.212-.285.8.8,0,0,0,.013-.65c-.208-.542-.689-.718-1.051-1.162a.9.9,0,0,0-.092-.1C2070.406,180.579,2070.25,180.263,2069.852,180.164Zm3.954-3.777c-.774-.109-2.557,1.538-2.638,2.255-.1.427,1.825,2.344,2.239,2.244.678-.04,2.365-1.876,2.244-2.647A1.845,1.845,0,0,0,2073.806,176.387Zm-14.557-13.014c-1.06.239-.564,1.554-.651,2.358a.664.664,0,0,0,0,.166c.147,1.12-.629,3.773.951,3.753,1.435-.012,2.94-.007,4.384,0,1.363.033,1.031-1.569.266-2.2-1.236-.951-3.253-3.828-4.649-4.081A.761.761,0,0,0,2059.249,163.373Z" transform="translate(0 0)" fill="#1a58d3" stroke="rgba(0,0,0,0)" stroke-width="1"></path><path id="Path_12284" data-name="Path 12284" d="M2099.476,283.66H2082.3c-.352,0-.945-.1-.964-.766a.811.811,0,0,1,.212-.6.829.829,0,0,1,.607-.237c.5,0,1.042-.007,1.715-.007h12.6q2.075,0,4.149,0a.884.884,0,0,1,.714.326.805.805,0,0,1-.657,1.276C2100.328,283.658,2099.947,283.66,2099.476,283.66Z" transform="translate(-42.893 -107.106)" fill="#1a58d3" stroke="rgba(0,0,0,0)" stroke-width="1"></path><path id="Path_12285" data-name="Path 12285" d="M2085.412,331.573q-1.619,0-3.236,0a.778.778,0,0,1-.841-.758.806.806,0,0,1,.208-.6.871.871,0,0,1,.643-.242q1.332-.006,2.663,0l4.154,0,3.486,0q1.415,0,2.828,0a.9.9,0,0,1,.722.327.776.776,0,0,1,.123.687.8.8,0,0,1-.853.59q-1.6,0-3.2,0h-6.69Z" transform="translate(-42.893 -149.724)" fill="#1a58d3" stroke="rgba(0,0,0,0)" stroke-width="1"></path><path id="Path_12286" data-name="Path 12286" d="M2089.279,379.476h-4.252q-1.455,0-2.91,0a.774.774,0,0,1-.812-.663.812.812,0,0,1,.56-.912,1.05,1.05,0,0,1,.309-.031h8.286l2.539,0c.944,0,1.669,0,2.351.007a.777.777,0,0,1,.792.673.789.789,0,0,1-.56.895,1.95,1.95,0,0,1-.466.035q-1.786,0-3.575,0Z" transform="translate(-42.86 -192.333)" fill="#1a58d3" stroke="rgba(0,0,0,0)" stroke-width="1"></path><path id="Path_12287" data-name="Path 12287" d="M2087.7,427.392l-5.448,0c-.573,0-.917-.3-.92-.8a.758.758,0,0,1,.2-.559,1.026,1.026,0,0,1,.743-.252l2.593,0h7.538q1.478,0,2.957,0a.778.778,0,0,1,.806.664.794.794,0,0,1-.552.9,1.406,1.406,0,0,1-.366.036Z" transform="translate(-42.896 -234.954)" fill="#1a58d3" stroke="rgba(0,0,0,0)" stroke-width="1"></path><path id="Path_12288" data-name="Path 12288" d="M2181.988,500.843q-2.04,0-4.079-.007a.775.775,0,0,1-.789-.675.788.788,0,0,1,.563-.893,1.745,1.745,0,0,1,.42-.034q.925,0,1.85,0h2.071l2.188,0q.8,0,1.6,0a.8.8,0,1,1,.029,1.6Q2183.911,500.843,2181.988,500.843Z" transform="translate(-128.085 -300.284)" fill="#1a58d3" stroke="rgba(0,0,0,0)" stroke-width="1"></path></g></g><g id="Group_2598" data-name="Group 2598" transform="translate(1340.777 1546.247)"><circle id="Ellipse_45" data-name="Ellipse 45" cx="12.723" cy="12.723" r="12.723" fill="#1a58d3"></circle><path id="Path_12257" data-name="Path 12257" d="M8360.22,10002.886a.842.842,0,0,1-.718-.422c-.835-1.131-1.664-2.262-2.516-3.381-.313-.414-.684-.789-1.025-1.184a.549.549,0,0,1,0-.855,3.655,3.655,0,0,1,.635-.57,1.067,1.067,0,0,1,1.392.225c.586.609,1.148,1.24,1.677,1.9.447.557.434.588.915.051a24.27,24.27,0,0,1,3.263-3.111,10.682,10.682,0,0,1,4.624-2.23,2.146,2.146,0,0,1,.591-.033.335.335,0,0,1,.228.2.325.325,0,0,1-.141.262c-.321.213-.666.389-.987.6a16.2,16.2,0,0,0-3.229,2.92c-.986,1.133-1.916,2.316-2.852,3.492-.347.438-.63.926-.962,1.375a4.927,4.927,0,0,1-.6.646A.765.765,0,0,1,8360.22,10002.886Z" transform="translate(-8349.133 -9984.098)" fill="#fafafa"></path></g></g></svg>