<svg xmlns="http://www.w3.org/2000/svg" width="95.574" height="95.694" viewBox="0 0 95.574 95.694"><g id="Group_2601" data-name="Group 2601" transform="translate(-688 -1476)"><g id="Group_2577" data-name="Group 2577" transform="translate(-5 365)"><g id="Union_20" data-name="Union 20" transform="translate(693 1111)" fill="none"><path d="M47.788,0A47.787,47.787,0,1,1,0,47.787,47.787,47.787,0,0,1,47.788,0Z" stroke="none"></path><path d="M 47.78778076171875 0.9999923706054688 C 41.47111892700195 0.9999923706054688 35.34391784667969 2.236892700195312 29.57640838623047 4.676353454589844 C 24.00514221191406 7.032791137695312 19.00143432617188 10.40647125244141 14.70425415039062 14.70364379882812 C 10.40708160400391 19.00081634521484 7.033416748046875 24.00453186035156 4.676971435546875 29.57579040527344 C 2.237518310546875 35.34330368041992 1.000617980957031 41.47049331665039 1.000617980957031 47.78715515136719 C 1.000617980957031 54.10381698608398 2.237518310546875 60.23100662231445 4.676971435546875 65.99851989746094 C 7.033416748046875 71.56977844238281 10.40708160400391 76.57349395751953 14.70425415039062 80.87066650390625 C 19.00143432617188 85.1678466796875 24.00514221191406 88.54150390625 29.57640838623047 90.89795684814453 C 35.34391784667969 93.33740234375 41.47111892700195 94.57430267333984 47.78778076171875 94.57430267333984 C 54.10444259643555 94.57430267333984 60.23163223266602 93.33740234375 65.9991455078125 90.89795684814453 C 71.57040405273438 88.54150390625 76.57411956787109 85.1678466796875 80.87129211425781 80.87066650390625 C 85.16847229003906 76.57349395751953 88.54212951660156 71.56977844238281 90.89858245849609 65.99851989746094 C 93.33802795410156 60.23100662231445 94.57492828369141 54.10381698608398 94.57492828369141 47.78715515136719 C 94.57492828369141 41.47049331665039 93.33802795410156 35.34330368041992 90.89858245849609 29.57579040527344 C 88.54212951660156 24.00453186035156 85.16847229003906 19.00081634521484 80.87129211425781 14.70364379882812 C 76.57411956787109 10.40647125244141 71.57040405273438 7.032791137695312 65.9991455078125 4.676353454589844 C 60.23163223266602 2.236892700195312 54.10444259643555 0.9999923706054688 47.78778076171875 0.9999923706054688 M 47.78778076171875 -7.62939453125e-06 C 74.17989349365234 -7.62939453125e-06 95.57492828369141 21.39504241943359 95.57492828369141 47.78715515136719 C 95.57492828369141 74.17926788330078 74.17989349365234 95.57430267333984 47.78778076171875 95.57430267333984 C 21.39565277099609 95.57430267333984 0.00061798095703125 74.17926788330078 0.00061798095703125 47.78715515136719 C 0.00061798095703125 21.39504241943359 21.39565277099609 -7.62939453125e-06 47.78778076171875 -7.62939453125e-06 Z" stroke="none" fill="#1a58d3"></path></g><g id="Group_2566" data-name="Group 2566" transform="translate(-166.53 815.283)"><path id="Path_12258" data-name="Path 12258" d="M907.468,363.18q-7.614,0-15.228,0a4.173,4.173,0,0,1-4.223-3.472,3.879,3.879,0,0,1-.052-.735q0-13.923,0-27.845a4.158,4.158,0,0,1,4.228-4.211c1,0,2-.01,3,0,.316,0,.453-.091.431-.421a8.31,8.31,0,0,1,0-.957.721.721,0,0,1,1.443.014c.015.318.019.639,0,.957-.016.3.1.412.4.406.8-.015,1.6,0,2.393,0,2.117,0,4.235-.013,6.352.01.452.005.6-.137.55-.57a4.921,4.921,0,0,1,0-.826.72.72,0,0,1,1.44-.005c.018.333.017.667,0,1-.01.27.073.394.368.394q4.481-.01,8.963,0c.259,0,.373-.09.361-.355s0-.551,0-.827c.005-.571.262-.892.715-.9s.733.326.738.921c0,.261.013.523,0,.783-.017.286.1.381.383.378,1.015-.01,2.03-.007,3.046,0a4.156,4.156,0,0,1,4.23,4.208q.008,13.923,0,27.845a4.151,4.151,0,0,1-4.228,4.21Q915.125,363.187,907.468,363.18Zm.04-26.823q-8.766,0-17.532-.008c-.432,0-.57.11-.569.559.014,5.873.007,11.746.011,17.619a2.808,2.808,0,0,0,3.019,3.021q15.053.005,30.105,0a3.712,3.712,0,0,0,1.03-.14,2.783,2.783,0,0,0,1.986-2.887q0-8.788,0-17.576c0-.589,0-.591-.606-.591Zm-.039-1.513H921c1.378,0,2.756-.007,4.134,0,.319,0,.434-.1.429-.427-.015-1.044.005-2.089-.009-3.133a2.736,2.736,0,0,0-2.514-2.879,18.864,18.864,0,0,0-2.477-.039c-1.2-.01-1.2,0-1.211,1.195-.008.575-.26.885-.723.887s-.722-.3-.73-.88c-.017-1.2-.017-1.2-1.2-1.2h-7.789c-.693,0-.693,0-.693.714,0,.218.008.436-.005.653a.722.722,0,0,1-1.443-.007c-.015-.333-.015-.667,0-1,.009-.259-.089-.362-.355-.362q-4.482.008-8.964,0c-.289,0-.389.113-.373.388.014.246,0,.493,0,.74q0,.97-.738.96c-.483-.006-.713-.321-.716-.981,0-.232-.013-.465,0-.7.02-.294-.083-.417-.394-.412-.986.014-1.973-.012-2.959.01a2.7,2.7,0,0,0-2.8,2.491,30.182,30.182,0,0,0-.048,3.39c-.009.588,0,.589.6.59Zm-.021,26.883H909.8q6.374,0,12.747,0a2.794,2.794,0,0,0,2.709-1.551,3.423,3.423,0,0,0,.3-1.694c0-.122.07-.289-.072-.356-.113-.053-.2.087-.293.149a4.176,4.176,0,0,1-2.372.732q-15.336-.006-30.672,0a4.243,4.243,0,0,1-1.648-.339,4.023,4.023,0,0,1-.828-.476c-.121-.089-.241-.16-.252.081a3.15,3.15,0,0,0,1.03,2.823,3.1,3.1,0,0,0,2.033.633Z" fill="#1a58d3" stroke="rgba(0,0,0,0)" stroke-width="1"></path><path id="Path_12259" data-name="Path 12259" d="M1071.408,461.1c0,1.189.009,2.378,0,3.566a4.159,4.159,0,0,1-4.089,4.08,10.825,10.825,0,0,1-2.384-.078,4.16,4.16,0,0,1-3.33-4.118q-.01-3.5,0-7a4.15,4.15,0,0,1,4.177-4.168,10.822,10.822,0,0,1,2.3.077,4.168,4.168,0,0,1,3.329,4.076C1071.414,458.727,1071.408,459.916,1071.408,461.1Zm-1.453-.023v-3.263c0-.029,0-.058,0-.087a2.746,2.746,0,0,0-2.494-2.854,6.531,6.531,0,0,0-1.907,0,2.712,2.712,0,0,0-2.491,2.807q-.038,3.393,0,6.786a2.708,2.708,0,0,0,2.464,2.788,6.6,6.6,0,0,0,1.865.013,2.753,2.753,0,0,0,2.562-2.926C1069.963,463.256,1069.955,462.169,1069.955,461.081Z" transform="translate(-153.447 -113.584)" fill="#1a58d3" stroke="rgba(0,0,0,0)" stroke-width="1"></path><path id="Path_12260" data-name="Path 12260" d="M973.469,454.955h-.477q-3.154,0-6.309,0c-.535,0-.837-.276-.833-.731s.3-.718.845-.719q4.046,0,8.093,0c.772,0,1.1.576.688,1.234-1.025,1.633-2.072,3.253-3.111,4.878-.27.422-.271.422.218.569a4.336,4.336,0,0,1,3.055,4.578,4.162,4.162,0,0,1-3.62,4.061,6.471,6.471,0,0,1-3.678-.324A4.2,4.2,0,0,1,966,465.687a.761.761,0,0,1,.484-1.013.741.741,0,0,1,.942.61,2.861,2.861,0,0,0,2.959,2.146,4.482,4.482,0,0,0,2.245-.372,2.965,2.965,0,0,0-1.359-5.571c-.13,0-.261,0-.391,0-.777-.026-1.088-.577-.67-1.243,1.018-1.621,2.059-3.227,3.085-4.843C973.371,455.271,973.519,455.166,973.469,454.955Z" transform="translate(-68.833 -113.706)" fill="#1a58d3" stroke="rgba(0,0,0,0)" stroke-width="1"></path></g></g><g id="Group_2595" data-name="Group 2595" transform="translate(755.554 1546.247)"><circle id="Ellipse_45" data-name="Ellipse 45" cx="12.723" cy="12.723" r="12.723" fill="#1a58d3"></circle><path id="Path_12257" data-name="Path 12257" d="M8360.22,10002.886a.842.842,0,0,1-.718-.422c-.835-1.131-1.664-2.262-2.516-3.381-.313-.414-.684-.789-1.025-1.184a.549.549,0,0,1,0-.855,3.655,3.655,0,0,1,.635-.57,1.067,1.067,0,0,1,1.392.225c.586.609,1.148,1.24,1.677,1.9.447.557.434.588.915.051a24.27,24.27,0,0,1,3.263-3.111,10.682,10.682,0,0,1,4.624-2.23,2.146,2.146,0,0,1,.591-.033.335.335,0,0,1,.228.2.325.325,0,0,1-.141.262c-.321.213-.666.389-.987.6a16.2,16.2,0,0,0-3.229,2.92c-.986,1.133-1.916,2.316-2.852,3.492-.347.438-.63.926-.962,1.375a4.927,4.927,0,0,1-.6.646A.765.765,0,0,1,8360.22,10002.886Z" transform="translate(-8349.133 -9984.098)" fill="#fafafa"></path></g></g></svg>