<svg xmlns="http://www.w3.org/2000/svg" width="73" height="73" viewBox="0 0 73 73"><g id="Group_89" data-name="Group 89" transform="translate(0 -2067.199)"><g id="Rectangle_100" data-name="Rectangle 100" transform="translate(0 2067.199)" fill="rgba(255,255,255,0.2)" stroke="#1a58d3" stroke-width="2"><rect width="73" height="73" rx="36.5" stroke="none"></rect><rect x="1" y="1" width="71" height="71" rx="35.5" fill="none"></rect></g><g id="Group_15339" data-name="Group 15339" transform="translate(-1007.906 -1248.911)"><path id="Path_12668" data-name="Path 12668" d="M1044.915,3340.9c4.632,0,9.264.034,13.9-.016a3.588,3.588,0,0,1,3.633,3.62c-.021,5.689-.005,11.379-.009,17.069a3.494,3.494,0,0,1-3.651,3.636q-13.876,0-27.752,0a3.5,3.5,0,0,1-3.664-3.664c0-5.676.015-11.352-.009-17.028a3.59,3.59,0,0,1,3.621-3.633C1035.624,3340.935,1040.27,3340.9,1044.915,3340.9Zm-.043,22.9q6.927,0,13.855,0a2.834,2.834,0,0,0,1.06-.18c.26-.1.282-.216.091-.433q-4.588-5.214-9.159-10.445c-.271-.311-.446-.305-.74-.04-1.443,1.3-2.9,2.576-4.355,3.863-.578.512-.855.516-1.421.015-1.473-1.3-2.951-2.6-4.416-3.916-.244-.219-.381-.224-.607.035q-3.047,3.5-6.117,6.971c-1.033,1.177-2.058,2.36-3.1,3.531-.209.236-.174.345.11.443a2.963,2.963,0,0,0,.984.156Q1037.965,3363.8,1044.872,3363.8Zm.027-21.494q-7.007,0-14.014,0c-.167,0-.419-.076-.482.084-.079.2.184.29.314.406q4.013,3.553,8.034,7.1c1.947,1.718,3.9,3.43,5.837,5.157.243.216.4.216.632,0,.538-.5,1.1-.975,1.654-1.462q6.081-5.366,12.159-10.735c.146-.129.431-.254.373-.426-.074-.221-.374-.116-.573-.116Q1051.866,3342.3,1044.9,3342.308Zm-16.123,10.721q0,4.156,0,8.313c0,.147,0,.295,0,.442s-.036.338.116.4.212-.133.3-.227c.579-.65,1.15-1.306,1.724-1.959q3.6-4.1,7.208-8.2c.239-.27.21-.4-.052-.629-2.186-1.912-4.357-3.841-6.533-5.764q-1.053-.931-2.107-1.86c-.323-.283-.393-.261-.538.15a2.568,2.568,0,0,0-.117.87Q1028.779,3348.793,1028.776,3353.029Zm32.123,9.2a.781.781,0,0,0,.126-.547q0-8.65,0-17.3a2.164,2.164,0,0,0-.1-.632c-.147-.485-.219-.508-.6-.174q-4.287,3.784-8.577,7.565c-.288.253-.263.394-.025.661,1.864,2.1,3.712,4.217,5.566,6.328Z" fill="#1a58d3"></path></g></g></svg>