<svg xmlns="http://www.w3.org/2000/svg" width="73" height="73" viewBox="0 0 73 73"><g id="Group_89" data-name="Group 89" transform="translate(0 -2067.199)"><g id="Rectangle_100" data-name="Rectangle 100" transform="translate(0 2067.199)" fill="rgba(255,255,255,0.2)" stroke="#1a58d3" stroke-width="2"><rect width="73" height="73" rx="36.5" stroke="none"></rect><rect x="1" y="1" width="71" height="71" rx="35.5" fill="none"></rect></g><path id="Path_12674" data-name="Path 12674" d="M1556.649,3515.209h-.237a19.887,19.887,0,0,1-19.639-19.885,19.909,19.909,0,0,1,19.893-19.9h.064a19.9,19.9,0,0,1-.081,39.791Zm-8.383-10.761a.712.712,0,0,0-.49.271c-1.488,1.526-2.646,2.694-3.756,3.787a.867.867,0,0,0-.318.666.835.835,0,0,0,.4.575.543.543,0,0,1,.053.048c.026.025.052.05.08.073a18.855,18.855,0,0,0,12.3,4.566,21.39,21.39,0,0,0,2.245-.121,18.41,18.41,0,0,0,11.267-5.348,18.885,18.885,0,0,0,5.717-14.39,18.68,18.68,0,0,0-.893-5.091,19.2,19.2,0,0,0-3.848-6.806.78.78,0,0,0-.575-.323.807.807,0,0,0-.554.281c-2.013,2.025-4.067,4.078-6.053,6.063l-1.744,1.744a.876.876,0,0,0-.324.714c.045.643.083,1.3.121,1.933q.034.584.071,1.167l0,.049a.633.633,0,0,0,.627.722.727.727,0,0,0,.6-.4l.03-.045c.11-.161.217-.324.323-.487.172-.265.351-.538.539-.791a4.106,4.106,0,0,1,1.7-1.441,2.273,2.273,0,0,1,.88-.173,2.25,2.25,0,0,1,1.794.844,1.926,1.926,0,0,1-.244,2.565,16.643,16.643,0,0,0-2.426,3.981l-.036.08c-.815,1.781-1.585,3.464-3.2,4.572a1.776,1.776,0,0,0-.358.356l-.031.039a3.494,3.494,0,0,0-.821,2.933c.135.772.26,1.45.381,2.072.167.851.167.851-.6,1.141a16.017,16.017,0,0,1-5.671,1.022,19.141,19.141,0,0,1-3.575-.351,9.007,9.007,0,0,1-2.682-.89.57.57,0,0,1-.329-.669c.1-.755.145-1.521.189-2.24a4.852,4.852,0,0,0-.264-2.217C1548.716,3504.761,1548.586,3504.448,1548.266,3504.448Zm12.3-12.444a.336.336,0,0,0-.244.123c-.037.044-.071.087-.1.129a2.4,2.4,0,0,1-.163.192l-.241.244c-1.268,1.282-2.58,2.608-3.874,3.907l-.545.546c-1.894,1.9-3.852,3.866-5.79,5.785a1.038,1.038,0,0,0-.283,1.317,5.171,5.171,0,0,1,.482,3.039,7.254,7.254,0,0,0-.07.854c-.009.217-.018.422-.041.625a.882.882,0,0,0,.692,1.028,14.844,14.844,0,0,0,3.235.668c.6.058,1.2.086,1.774.086a15.831,15.831,0,0,0,4.962-.777.7.7,0,0,0,.518-.914l-.008-.037a18.749,18.749,0,0,1-.33-2.04,4.083,4.083,0,0,1,1.575-3.641,8.852,8.852,0,0,0,2.514-3.342,20.612,20.612,0,0,1,3.207-5.43,1,1,0,0,0,.249-.8,1.159,1.159,0,0,0-.506-.808,1.609,1.609,0,0,0-.916-.3,1.67,1.67,0,0,0-.69.156,3.031,3.031,0,0,0-1.048.861,10.9,10.9,0,0,0-.812,1.133c-.125.192-.255.391-.388.579a1.4,1.4,0,0,1-1.146.65,1.352,1.352,0,0,1-.355-.049,1.458,1.458,0,0,1-1.042-1.337c-.021-.339-.039-.678-.056-1.017q-.017-.33-.035-.659l0-.043a.854.854,0,0,0-.264-.64.339.339,0,0,0-.239-.1Zm-3.789-15.8a21.5,21.5,0,0,0-2.223.118,18.255,18.255,0,0,0-11.335,5.4,18.712,18.712,0,0,0-5.438,16.664,18.5,18.5,0,0,0,4.466,9.525.853.853,0,0,0,.621.358.87.87,0,0,0,.6-.312c1.48-1.5,2.808-2.813,4.059-4.018a1.033,1.033,0,0,0,.264-1.418,1.664,1.664,0,0,1-.151-.44l-.026-.1a18.67,18.67,0,0,1-.472-4.132,69.238,69.238,0,0,1,.343-8.186,10.973,10.973,0,0,1,.616-2.986,1.766,1.766,0,0,1,1.778-1.3.689.689,0,0,0,.522-.184.727.727,0,0,0,.174-.542c-.011-.535-.006-1.1,0-1.545a2,2,0,0,1,2.034-2.186,2.92,2.92,0,0,1,.611.068,1.008,1.008,0,0,0,.209.026c.274,0,.45-.165.524-.489a2.036,2.036,0,0,1,1.7-1.71,2.479,2.479,0,0,1,.335-.023,2.036,2.036,0,0,1,1.844,1.253.658.658,0,0,0,.606.4.978.978,0,0,0,.172-.017,2.943,2.943,0,0,1,.487-.042,2.043,2.043,0,0,1,2.112,2.045c.069.984.123,1.988.176,2.959.031.578.063,1.157.1,1.735.024.406.056.813.09,1.245.016.207.033.42.05.646a.337.337,0,0,0,.214.289.331.331,0,0,0,.122.023.338.338,0,0,0,.232-.092c.063-.06.112-.106.153-.143.073-.069.121-.113.166-.159l6.615-6.65c.334-.335.516-.519.5-.8s-.219-.452-.591-.759A18.872,18.872,0,0,0,1556.775,3476.2Zm-7,9.955a.859.859,0,0,0-.679.309,1.862,1.862,0,0,0-.282.48,5.654,5.654,0,0,0-.373,1.47,64.046,64.046,0,0,0-.526,8.8,20.444,20.444,0,0,0,.421,4.456c.005.025.009.051.013.079a.64.64,0,0,0,.369.571.507.507,0,0,0,.18.034.613.613,0,0,0,.485-.3.608.608,0,0,1,.044-.056q1.66-1.657,3.317-3.317c2.4-2.4,4.886-4.887,7.341-7.319a2.263,2.263,0,0,0,.787-2.01c-.152-1.6-.243-3.228-.332-4.806-.039-.688-.079-1.4-.123-2.1a1.285,1.285,0,0,0-1.293-1.329h-.056c-.474.017-1.04.269-1.041,1.37q0,2.336,0,4.672v3.109c0,.035,0,.069,0,.1a2.065,2.065,0,0,1-.008.275.362.362,0,0,1-.715.007,2.309,2.309,0,0,1-.009-.308c0-.038,0-.075,0-.112v-1.5q0-3.6,0-7.208a3.818,3.818,0,0,0-.114-1,1.3,1.3,0,0,0-1.207-.986h-.048a1.272,1.272,0,0,0-1.2,1.022,2.982,2.982,0,0,0-.064.657q0,1.808,0,3.615v4.546q0,.218,0,.438c0,.351,0,.714,0,1.069,0,.184-.069.4-.356.407s-.359-.216-.368-.4c0-.083,0-.167,0-.257v-7.405a2.054,2.054,0,0,0-.077-.663,1.339,1.339,0,0,0-1.234-.94h-.038a1.26,1.26,0,0,0-1.185.984,3.573,3.573,0,0,0-.1.918q0,3.557,0,7.113v1.3c0,.035,0,.07,0,.105a2.119,2.119,0,0,1-.007.275.336.336,0,0,1-.353.315h0a.342.342,0,0,1-.365-.331,2.218,2.218,0,0,1-.006-.25v-1.6q0-1.726,0-3.453c0-.023,0-.046,0-.069a.646.646,0,0,0-.471-.743A1.335,1.335,0,0,0,1549.78,3486.156Z" transform="translate(-1520.701 -1391.615)" fill="#1a58d3" stroke="#1a58d3" stroke-width="0.5"></path></g></svg>